<svg xmlns="http://www.w3.org/2000/svg" width="450" viewBox="0 0 450 150" height="150" version="1.0"><defs><clipPath id="a"><path d="M 252 73 L 262 73 L 262 98 L 252 98 Z M 252 73"/></clipPath><clipPath id="b"><path d="M 252.589844 32.953125 L 407.550781 4.789062 L 422.300781 85.960938 L 267.339844 114.121094 Z M 252.589844 32.953125"/></clipPath><clipPath id="c"><path d="M 407.828125 4.742188 L 204.902344 41.617188 L 224.210938 147.878906 L 427.136719 111 Z M 407.828125 4.742188"/></clipPath><clipPath id="d"><path d="M 407.828125 4.742188 L 204.902344 41.617188 L 224.210938 147.878906 L 427.136719 111 Z M 407.828125 4.742188"/></clipPath><clipPath id="e"><path d="M 252 74 L 263 74 L 263 97 L 252 97 Z M 252 74"/></clipPath><clipPath id="f"><path d="M 252.589844 32.953125 L 407.550781 4.789062 L 422.300781 85.960938 L 267.339844 114.121094 Z M 252.589844 32.953125"/></clipPath><clipPath id="g"><path d="M 407.828125 4.742188 L 204.902344 41.617188 L 224.210938 147.878906 L 427.136719 111 Z M 407.828125 4.742188"/></clipPath><clipPath id="h"><path d="M 407.828125 4.742188 L 204.902344 41.617188 L 224.210938 147.878906 L 427.136719 111 Z M 407.828125 4.742188"/></clipPath><clipPath id="i"><path d="M 252 51 L 256 51 L 256 76 L 252 76 Z M 252 51"/></clipPath><clipPath id="j"><path d="M 252.589844 32.953125 L 407.550781 4.789062 L 422.300781 85.960938 L 267.339844 114.121094 Z M 252.589844 32.953125"/></clipPath><clipPath id="k"><path d="M 407.828125 4.742188 L 204.902344 41.617188 L 224.210938 147.878906 L 427.136719 111 Z M 407.828125 4.742188"/></clipPath><clipPath id="l"><path d="M 407.828125 4.742188 L 204.902344 41.617188 L 224.210938 147.878906 L 427.136719 111 Z M 407.828125 4.742188"/></clipPath><clipPath id="m"><path d="M 252 53 L 256 53 L 256 63 L 252 63 Z M 252 53"/></clipPath><clipPath id="n"><path d="M 252.589844 32.953125 L 407.550781 4.789062 L 422.300781 85.960938 L 267.339844 114.121094 Z M 252.589844 32.953125"/></clipPath><clipPath id="o"><path d="M 407.828125 4.742188 L 204.902344 41.617188 L 224.210938 147.878906 L 427.136719 111 Z M 407.828125 4.742188"/></clipPath><clipPath id="p"><path d="M 407.828125 4.742188 L 204.902344 41.617188 L 224.210938 147.878906 L 427.136719 111 Z M 407.828125 4.742188"/></clipPath><clipPath id="q"><path d="M 252 58 L 253 58 L 253 69 L 252 69 Z M 252 58"/></clipPath><clipPath id="r"><path d="M 252.589844 32.953125 L 407.550781 4.789062 L 422.300781 85.960938 L 267.339844 114.121094 Z M 252.589844 32.953125"/></clipPath><clipPath id="s"><path d="M 407.828125 4.742188 L 204.902344 41.617188 L 224.210938 147.878906 L 427.136719 111 Z M 407.828125 4.742188"/></clipPath><clipPath id="t"><path d="M 407.828125 4.742188 L 204.902344 41.617188 L 224.210938 147.878906 L 427.136719 111 Z M 407.828125 4.742188"/></clipPath><clipPath id="u"><path d="M 259 38 L 264 38 L 264 42 L 259 42 Z M 259 38"/></clipPath><clipPath id="v"><path d="M 252.589844 32.953125 L 407.550781 4.789062 L 422.300781 85.960938 L 267.339844 114.121094 Z M 252.589844 32.953125"/></clipPath><clipPath id="w"><path d="M 407.828125 4.742188 L 204.902344 41.617188 L 224.210938 147.878906 L 427.136719 111 Z M 407.828125 4.742188"/></clipPath><clipPath id="x"><path d="M 407.828125 4.742188 L 204.902344 41.617188 L 224.210938 147.878906 L 427.136719 111 Z M 407.828125 4.742188"/></clipPath><clipPath id="y"><path d="M 266 27 L 421 27 L 421 115 L 266 115 Z M 266 27"/></clipPath><clipPath id="z"><path d="M 252.589844 32.953125 L 407.550781 4.789062 L 422.300781 85.960938 L 267.339844 114.121094 Z M 252.589844 32.953125"/></clipPath><clipPath id="A"><path d="M 407.828125 4.742188 L 204.902344 41.617188 L 224.210938 147.878906 L 427.136719 111 Z M 407.828125 4.742188"/></clipPath><clipPath id="B"><path d="M 407.828125 4.742188 L 204.902344 41.617188 L 224.210938 147.878906 L 427.136719 111 Z M 407.828125 4.742188"/></clipPath><clipPath id="C"><path d="M 199.347656 106 L 218 106 L 218 111 L 199.347656 111 Z M 199.347656 106"/></clipPath><clipPath id="D"><path d="M 222 106 L 240.597656 106 L 240.597656 111 L 222 111 Z M 222 106"/></clipPath><clipPath id="E"><path d="M 199.347656 114 L 218 114 L 218 119.25 L 199.347656 119.25 Z M 199.347656 114"/></clipPath><clipPath id="F"><path d="M 222 114 L 240.597656 114 L 240.597656 119.25 L 222 119.25 Z M 222 114"/></clipPath><clipPath id="G"><path d="M 201 114 L 203 114 L 203 119.25 L 201 119.25 Z M 201 114"/></clipPath><clipPath id="H"><path d="M 204 114 L 206 114 L 206 119.25 L 204 119.25 Z M 204 114"/></clipPath><clipPath id="I"><path d="M 214 114 L 216 114 L 216 119.25 L 214 119.25 Z M 214 114"/></clipPath><clipPath id="J"><path d="M 207 116 L 209 116 L 209 119.25 L 207 119.25 Z M 207 116"/></clipPath><clipPath id="K"><path d="M 211 116 L 213 116 L 213 119.25 L 211 119.25 Z M 211 116"/></clipPath><clipPath id="L"><path d="M 237 114 L 239 114 L 239 119.25 L 237 119.25 Z M 237 114"/></clipPath><clipPath id="M"><path d="M 234 114 L 237 114 L 237 119.25 L 234 119.25 Z M 234 114"/></clipPath><clipPath id="N"><path d="M 224 114 L 226 114 L 226 119.25 L 224 119.25 Z M 224 114"/></clipPath><clipPath id="O"><path d="M 231 116 L 234 116 L 234 119.25 L 231 119.25 Z M 231 116"/></clipPath><clipPath id="P"><path d="M 227 116 L 229 116 L 229 119.25 L 227 119.25 Z M 227 116"/></clipPath><clipPath id="Q"><path d="M 231 44 L 254 44 L 254 66 L 231 66 Z M 231 44"/></clipPath><clipPath id="R"><path d="M 232.070312 89.691406 L 213.988281 42.003906 L 247.648438 29.238281 L 265.730469 76.925781 Z M 232.070312 89.691406"/></clipPath><clipPath id="S"><path d="M 232.070312 89.691406 L 213.988281 42.003906 L 247.648438 29.238281 L 265.730469 76.925781 Z M 232.070312 89.691406"/></clipPath><clipPath id="T"><path d="M 232.070312 89.691406 L 213.988281 42.003906 L 247.648438 29.238281 L 265.730469 76.925781 Z M 232.070312 89.691406"/></clipPath><clipPath id="U"><path d="M 234 55 L 242 55 L 242 63 L 234 63 Z M 234 55"/></clipPath><clipPath id="V"><path d="M 232.070312 89.691406 L 213.988281 42.003906 L 247.648438 29.238281 L 265.730469 76.925781 Z M 232.070312 89.691406"/></clipPath><clipPath id="W"><path d="M 232.070312 89.691406 L 213.988281 42.003906 L 247.648438 29.238281 L 265.730469 76.925781 Z M 232.070312 89.691406"/></clipPath><clipPath id="X"><path d="M 232.070312 89.691406 L 213.988281 42.003906 L 247.648438 29.238281 L 265.730469 76.925781 Z M 232.070312 89.691406"/></clipPath><clipPath id="Y"><path d="M 239 46 L 251 46 L 251 58 L 239 58 Z M 239 46"/></clipPath><clipPath id="Z"><path d="M 232.070312 89.691406 L 213.988281 42.003906 L 247.648438 29.238281 L 265.730469 76.925781 Z M 232.070312 89.691406"/></clipPath><clipPath id="aa"><path d="M 232.070312 89.691406 L 213.988281 42.003906 L 247.648438 29.238281 L 265.730469 76.925781 Z M 232.070312 89.691406"/></clipPath><clipPath id="ab"><path d="M 232.070312 89.691406 L 213.988281 42.003906 L 247.648438 29.238281 L 265.730469 76.925781 Z M 232.070312 89.691406"/></clipPath><clipPath id="ac"><path d="M 243 44 L 253 44 L 253 54 L 243 54 Z M 243 44"/></clipPath><clipPath id="ad"><path d="M 232.070312 89.691406 L 213.988281 42.003906 L 247.648438 29.238281 L 265.730469 76.925781 Z M 232.070312 89.691406"/></clipPath><clipPath id="ae"><path d="M 232.070312 89.691406 L 213.988281 42.003906 L 247.648438 29.238281 L 265.730469 76.925781 Z M 232.070312 89.691406"/></clipPath><clipPath id="af"><path d="M 232.070312 89.691406 L 213.988281 42.003906 L 247.648438 29.238281 L 265.730469 76.925781 Z M 232.070312 89.691406"/></clipPath><clipPath id="ag"><path d="M 231 64 L 239 64 L 239 76 L 231 76 Z M 231 64"/></clipPath><clipPath id="ah"><path d="M 232.070312 89.691406 L 213.988281 42.003906 L 247.648438 29.238281 L 265.730469 76.925781 Z M 232.070312 89.691406"/></clipPath><clipPath id="ai"><path d="M 232.070312 89.691406 L 213.988281 42.003906 L 247.648438 29.238281 L 265.730469 76.925781 Z M 232.070312 89.691406"/></clipPath><clipPath id="aj"><path d="M 232.070312 89.691406 L 213.988281 42.003906 L 247.648438 29.238281 L 265.730469 76.925781 Z M 232.070312 89.691406"/></clipPath><clipPath id="ak"><path d="M 235 71 L 237 71 L 237 73 L 235 73 Z M 235 71"/></clipPath><clipPath id="al"><path d="M 232.070312 89.691406 L 213.988281 42.003906 L 247.648438 29.238281 L 265.730469 76.925781 Z M 232.070312 89.691406"/></clipPath><clipPath id="am"><path d="M 232.070312 89.691406 L 213.988281 42.003906 L 247.648438 29.238281 L 265.730469 76.925781 Z M 232.070312 89.691406"/></clipPath><clipPath id="an"><path d="M 232.070312 89.691406 L 213.988281 42.003906 L 247.648438 29.238281 L 265.730469 76.925781 Z M 232.070312 89.691406"/></clipPath><clipPath id="ao"><path d="M 235 71 L 237 71 L 237 74 L 235 74 Z M 235 71"/></clipPath><clipPath id="ap"><path d="M 232.070312 89.691406 L 213.988281 42.003906 L 247.648438 29.238281 L 265.730469 76.925781 Z M 232.070312 89.691406"/></clipPath><clipPath id="aq"><path d="M 232.070312 89.691406 L 213.988281 42.003906 L 247.648438 29.238281 L 265.730469 76.925781 Z M 232.070312 89.691406"/></clipPath><clipPath id="ar"><path d="M 232.070312 89.691406 L 213.988281 42.003906 L 247.648438 29.238281 L 265.730469 76.925781 Z M 232.070312 89.691406"/></clipPath><clipPath id="as"><path d="M 242 57 L 254 57 L 254 64 L 242 64 Z M 242 57"/></clipPath><clipPath id="at"><path d="M 232.070312 89.691406 L 213.988281 42.003906 L 247.648438 29.238281 L 265.730469 76.925781 Z M 232.070312 89.691406"/></clipPath><clipPath id="au"><path d="M 232.070312 89.691406 L 213.988281 42.003906 L 247.648438 29.238281 L 265.730469 76.925781 Z M 232.070312 89.691406"/></clipPath><clipPath id="av"><path d="M 232.070312 89.691406 L 213.988281 42.003906 L 247.648438 29.238281 L 265.730469 76.925781 Z M 232.070312 89.691406"/></clipPath><clipPath id="aw"><path d="M 242 57 L 254 57 L 254 65 L 242 65 Z M 242 57"/></clipPath><clipPath id="ax"><path d="M 232.070312 89.691406 L 213.988281 42.003906 L 247.648438 29.238281 L 265.730469 76.925781 Z M 232.070312 89.691406"/></clipPath><clipPath id="ay"><path d="M 232.070312 89.691406 L 213.988281 42.003906 L 247.648438 29.238281 L 265.730469 76.925781 Z M 232.070312 89.691406"/></clipPath><clipPath id="az"><path d="M 232.070312 89.691406 L 213.988281 42.003906 L 247.648438 29.238281 L 265.730469 76.925781 Z M 232.070312 89.691406"/></clipPath><clipPath id="aA"><path d="M 240 57 L 252 57 L 252 76 L 240 76 Z M 240 57"/></clipPath><clipPath id="aB"><path d="M 232.070312 89.691406 L 213.988281 42.003906 L 247.648438 29.238281 L 265.730469 76.925781 Z M 232.070312 89.691406"/></clipPath><clipPath id="aC"><path d="M 232.070312 89.691406 L 213.988281 42.003906 L 247.648438 29.238281 L 265.730469 76.925781 Z M 232.070312 89.691406"/></clipPath><clipPath id="aD"><path d="M 232.070312 89.691406 L 213.988281 42.003906 L 247.648438 29.238281 L 265.730469 76.925781 Z M 232.070312 89.691406"/></clipPath><clipPath id="aE"><path d="M 221 57 L 233 57 L 233 65 L 221 65 Z M 221 57"/></clipPath><clipPath id="aF"><path d="M 232.070312 89.691406 L 213.988281 42.003906 L 247.648438 29.238281 L 265.730469 76.925781 Z M 232.070312 89.691406"/></clipPath><clipPath id="aG"><path d="M 232.070312 89.691406 L 213.988281 42.003906 L 247.648438 29.238281 L 265.730469 76.925781 Z M 232.070312 89.691406"/></clipPath><clipPath id="aH"><path d="M 232.070312 89.691406 L 213.988281 42.003906 L 247.648438 29.238281 L 265.730469 76.925781 Z M 232.070312 89.691406"/></clipPath><clipPath id="aI"><path d="M 223 58 L 226 58 L 226 61 L 223 61 Z M 223 58"/></clipPath><clipPath id="aJ"><path d="M 232.070312 89.691406 L 213.988281 42.003906 L 247.648438 29.238281 L 265.730469 76.925781 Z M 232.070312 89.691406"/></clipPath><clipPath id="aK"><path d="M 232.070312 89.691406 L 213.988281 42.003906 L 247.648438 29.238281 L 265.730469 76.925781 Z M 232.070312 89.691406"/></clipPath><clipPath id="aL"><path d="M 232.070312 89.691406 L 213.988281 42.003906 L 247.648438 29.238281 L 265.730469 76.925781 Z M 232.070312 89.691406"/></clipPath><clipPath id="aM"><path d="M 233 43 L 241 43 L 241 55 L 233 55 Z M 233 43"/></clipPath><clipPath id="aN"><path d="M 232.070312 89.691406 L 213.988281 42.003906 L 247.648438 29.238281 L 265.730469 76.925781 Z M 232.070312 89.691406"/></clipPath><clipPath id="aO"><path d="M 232.070312 89.691406 L 213.988281 42.003906 L 247.648438 29.238281 L 265.730469 76.925781 Z M 232.070312 89.691406"/></clipPath><clipPath id="aP"><path d="M 232.070312 89.691406 L 213.988281 42.003906 L 247.648438 29.238281 L 265.730469 76.925781 Z M 232.070312 89.691406"/></clipPath><clipPath id="aQ"><path d="M 222 44 L 240 44 L 240 56 L 222 56 Z M 222 44"/></clipPath><clipPath id="aR"><path d="M 232.070312 89.691406 L 213.988281 42.003906 L 247.648438 29.238281 L 265.730469 76.925781 Z M 232.070312 89.691406"/></clipPath><clipPath id="aS"><path d="M 232.070312 89.691406 L 213.988281 42.003906 L 247.648438 29.238281 L 265.730469 76.925781 Z M 232.070312 89.691406"/></clipPath><clipPath id="aT"><path d="M 232.070312 89.691406 L 213.988281 42.003906 L 247.648438 29.238281 L 265.730469 76.925781 Z M 232.070312 89.691406"/></clipPath><clipPath id="aU"><path d="M 221 44 L 240 44 L 240 57 L 221 57 Z M 221 44"/></clipPath><clipPath id="aV"><path d="M 232.070312 89.691406 L 213.988281 42.003906 L 247.648438 29.238281 L 265.730469 76.925781 Z M 232.070312 89.691406"/></clipPath><clipPath id="aW"><path d="M 232.070312 89.691406 L 213.988281 42.003906 L 247.648438 29.238281 L 265.730469 76.925781 Z M 232.070312 89.691406"/></clipPath><clipPath id="aX"><path d="M 232.070312 89.691406 L 213.988281 42.003906 L 247.648438 29.238281 L 265.730469 76.925781 Z M 232.070312 89.691406"/></clipPath><clipPath id="aY"><path d="M 226.753906 59.757812 L 221.316406 45.410156 L 234.488281 40.414062 L 239.929688 54.765625 Z M 226.753906 59.757812"/></clipPath><clipPath id="aZ"><path d="M 226.753906 59.757812 L 221.320312 45.429688 L 234.496094 40.433594 L 239.929688 54.765625 Z M 226.753906 59.757812"/></clipPath><clipPath id="ba"><path d="M 230 44 L 254 44 L 254 66 L 230 66 Z M 230 44"/></clipPath><clipPath id="bb"><path d="M 232.070312 89.691406 L 213.988281 42.003906 L 247.648438 29.238281 L 265.730469 76.925781 Z M 232.070312 89.691406"/></clipPath><clipPath id="bc"><path d="M 232.070312 89.691406 L 213.988281 42.003906 L 247.648438 29.238281 L 265.730469 76.925781 Z M 232.070312 89.691406"/></clipPath><clipPath id="bd"><path d="M 232.070312 89.691406 L 213.988281 42.003906 L 247.648438 29.238281 L 265.730469 76.925781 Z M 232.070312 89.691406"/></clipPath><clipPath id="be"><path d="M 233.273438 67.433594 L 226.933594 50.714844 L 252.175781 41.144531 L 258.515625 57.863281 Z M 233.273438 67.433594"/></clipPath><clipPath id="bf"><path d="M 233.273438 67.433594 L 226.933594 50.714844 L 252.164062 41.148438 L 258.503906 57.867188 Z M 233.273438 67.433594"/></clipPath></defs><g clip-path="url(#a)"><g clip-path="url(#b)"><g clip-path="url(#c)"><g clip-path="url(#d)"><path fill="#100F0D" d="M 238.804688 75.324219 L 239.496094 75.320312 L 239.5 75.421875 C 239.507812 75.902344 239.582031 78.082031 240.085938 80.851562 C 240.628906 83.835938 241.671875 87.5 243.628906 90.453125 C 244.601562 91.929688 245.804688 93.230469 247.273438 94.203125 C 248.742188 95.175781 250.488281 95.828125 252.601562 96.011719 C 253.882812 96.117188 254.882812 96.085938 255.617188 95.949219 C 256.484375 95.792969 256.945312 95.507812 257.167969 95.21875 C 257.28125 95.070312 257.347656 94.910156 257.386719 94.710938 C 257.421875 94.507812 257.417969 94.261719 257.367188 93.96875 C 257.183594 92.914062 256.296875 91.355469 254.945312 89.65625 C 250.898438 84.539062 242.890625 78.027344 238.839844 75.324219 L 239.558594 74.144531 C 239.5625 74.144531 239.835938 74.300781 240.335938 74.574219 C 242.066406 75.53125 246.449219 77.925781 250.6875 80.019531 C 252.804688 81.066406 254.890625 82.042969 256.574219 82.714844 C 257.414062 83.054688 258.15625 83.320312 258.742188 83.480469 C 259.035156 83.554688 259.28125 83.613281 259.476562 83.636719 C 259.671875 83.667969 259.808594 83.660156 259.847656 83.652344 L 259.851562 83.648438 L 259.949219 83.957031 L 259.683594 83.800781 C 259.746094 83.691406 259.847656 83.648438 259.851562 83.648438 L 259.949219 83.957031 L 259.683594 83.800781 L 260 83.992188 L 259.632812 83.945312 L 259.683594 83.800781 L 260 83.992188 L 259.632812 83.945312 L 259.796875 83.964844 L 259.632812 83.992188 L 259.632812 83.945312 L 259.796875 83.964844 L 259.632812 83.992188 L 259.628906 83.972656 L 259.625 83.96875 C 259.433594 83.320312 258.757812 82.253906 257.695312 81.140625 C 256.09375 79.460938 253.625 77.625 250.605469 76.40625 C 247.589844 75.179688 244.03125 74.558594 240.195312 75.253906 C 239.921875 75.304688 239.652344 75.359375 239.378906 75.421875 L 239.222656 74.746094 L 239.78125 75.152344 L 239.367188 75.730469 L 238.804688 75.324219 L 239.496094 75.320312 L 238.804688 75.324219 L 238.246094 74.917969 L 238.660156 74.339844 L 238.8125 74.128906 L 239.066406 74.074219 C 239.359375 74.003906 239.65625 73.945312 239.949219 73.890625 C 245.457031 72.890625 250.425781 74.417969 254.132812 76.609375 C 255.988281 77.703125 257.53125 78.964844 258.691406 80.183594 C 259.851562 81.410156 260.632812 82.554688 260.949219 83.5625 L 260.949219 83.554688 L 260.996094 83.746094 C 261.019531 83.875 261.023438 84.015625 261 84.167969 C 260.964844 84.394531 260.824219 84.632812 260.640625 84.777344 C 260.460938 84.921875 260.269531 84.984375 260.09375 85.015625 C 259.789062 85.070312 259.5 85.042969 259.171875 84.992188 C 258.558594 84.890625 257.820312 84.664062 256.957031 84.351562 C 253.953125 83.242188 249.457031 81.003906 245.6875 79.027344 C 241.917969 77.054688 238.886719 75.355469 238.882812 75.351562 L 239.222656 74.746094 L 239.605469 74.171875 C 242.394531 76.039062 246.878906 79.546875 250.820312 83.257812 C 252.789062 85.113281 254.617188 87.015625 256.027344 88.796875 C 257.4375 90.589844 258.441406 92.230469 258.726562 93.722656 C 258.804688 94.140625 258.820312 94.554688 258.746094 94.953125 C 258.644531 95.554688 258.324219 96.117188 257.816406 96.511719 C 257.3125 96.917969 256.660156 97.171875 255.863281 97.316406 C 254.953125 97.480469 253.847656 97.507812 252.488281 97.390625 C 250.152344 97.195312 248.167969 96.457031 246.507812 95.359375 C 244.027344 93.710938 242.292969 91.289062 241.078125 88.71875 C 239.859375 86.144531 239.148438 83.417969 238.726562 81.097656 C 238.128906 77.816406 238.117188 75.355469 238.113281 75.324219 L 238.113281 75.101562 L 238.246094 74.917969 L 238.804688 75.324219"/></g></g></g></g><g clip-path="url(#e)"><g clip-path="url(#f)"><g clip-path="url(#g)"><g clip-path="url(#h)"><path fill="#211C1D" d="M 241.136719 75.113281 C 241.136719 75.113281 241.261719 95.339844 254.875 96.488281 C 270.421875 97.804688 249.226562 79.671875 241.554688 74.535156 C 241.554688 74.535156 263.671875 86.945312 262.621094 83.554688 C 261.574219 80.160156 252.570312 72.011719 241.554688 74.535156 L 241.136719 75.113281"/></g></g></g></g><g clip-path="url(#i)"><g clip-path="url(#j)"><g clip-path="url(#k)"><g clip-path="url(#l)"><path fill="#100F0D" d="M 239.457031 59.988281 L 240.125 60.433594 C 239.378906 61.554688 238.648438 63.292969 238.203125 65.128906 C 237.75 66.960938 237.582031 68.902344 237.859375 70.414062 C 237.964844 70.996094 238.132812 71.515625 238.367188 71.945312 C 238.59375 72.371094 238.878906 72.710938 239.230469 72.96875 C 239.613281 73.246094 240.0625 73.417969 240.59375 73.496094 C 241.125 73.570312 241.734375 73.546875 242.382812 73.429688 C 243.886719 73.15625 245.601562 72.382812 247.136719 71.398438 C 248.671875 70.417969 250.027344 69.230469 250.835938 68.203125 C 252.738281 65.800781 253.617188 63.222656 253.953125 60.851562 C 254.292969 58.484375 254.085938 56.324219 253.8125 54.828125 C 253.691406 54.164062 253.558594 53.632812 253.460938 53.273438 C 253.40625 53.089844 253.363281 52.953125 253.335938 52.859375 L 253.292969 52.734375 L 254.050781 52.460938 L 254.039062 53.269531 L 254.03125 53.269531 C 253.933594 53.265625 252.816406 53.269531 251.210938 53.5625 C 249.660156 53.84375 247.652344 54.394531 245.660156 55.460938 C 243.660156 56.527344 241.679688 58.09375 240.125 60.433594 L 238.789062 59.539062 C 240.507812 56.949219 242.71875 55.199219 244.898438 54.035156 C 247.089844 52.871094 249.25 52.28125 250.921875 51.976562 C 252.769531 51.640625 254.023438 51.65625 254.058594 51.660156 L 254.617188 51.664062 L 254.808594 52.1875 C 254.816406 52.222656 255.132812 53.105469 255.390625 54.539062 C 255.6875 56.160156 255.914062 58.484375 255.546875 61.082031 C 255.179688 63.675781 254.203125 66.550781 252.097656 69.207031 C 251.128906 70.421875 249.667969 71.6875 248.003906 72.757812 C 246.335938 73.820312 244.472656 74.683594 242.671875 75.011719 C 241.886719 75.15625 241.113281 75.195312 240.367188 75.089844 C 239.625 74.984375 238.90625 74.722656 238.289062 74.269531 C 237.714844 73.855469 237.269531 73.316406 236.945312 72.703125 C 236.621094 72.09375 236.40625 71.414062 236.277344 70.703125 C 235.945312 68.855469 236.152344 66.738281 236.640625 64.742188 C 237.128906 62.75 237.898438 60.882812 238.789062 59.539062 L 239.457031 59.988281"/></g></g></g></g><g clip-path="url(#m)"><g clip-path="url(#n)"><g clip-path="url(#o)"><g clip-path="url(#p)"><path fill="#100F0D" d="M 244.992188 53.867188 C 245.082031 53.871094 246.496094 53.917969 248.496094 54.882812 C 250.5 55.847656 253.078125 57.726562 255.46875 61.328125 L 254.132812 62.21875 C 251.890625 58.847656 249.554688 57.183594 247.804688 56.335938 C 246.925781 55.914062 246.191406 55.695312 245.691406 55.589844 C 245.4375 55.535156 245.246094 55.503906 245.117188 55.492188 L 244.980469 55.480469 L 244.953125 55.476562 L 244.957031 55.390625 L 244.957031 55.476562 L 244.953125 55.476562 L 244.957031 55.390625 L 244.957031 55.476562 L 244.992188 53.867188"/></g></g></g></g><g clip-path="url(#q)"><g clip-path="url(#r)"><g clip-path="url(#s)"><g clip-path="url(#t)"><path fill="#100F0D" d="M 239.949219 58.117188 C 240.078125 58.121094 241.84375 58.191406 244.332031 59.390625 C 246.824219 60.585938 250.019531 62.925781 252.972656 67.367188 L 250.964844 68.710938 C 248.230469 64.605469 245.402344 62.589844 243.289062 61.566406 C 242.230469 61.054688 241.351562 60.796875 240.746094 60.664062 C 240.445312 60.601562 240.214844 60.566406 240.066406 60.550781 L 239.910156 60.535156 L 239.882812 60.53125 L 239.90625 59.773438 L 239.886719 60.535156 L 239.882812 60.53125 L 239.90625 59.773438 L 239.886719 60.535156 L 239.949219 58.117188"/></g></g></g></g><g clip-path="url(#u)"><g clip-path="url(#v)"><g clip-path="url(#w)"><g clip-path="url(#x)"><path fill="#100F0D" d="M 260.011719 40.636719 C 260.617188 39.855469 261.277344 39.085938 261.992188 38.335938 C 262.273438 38.039062 262.742188 38.023438 263.039062 38.308594 C 263.335938 38.589844 263.34375 39.058594 263.0625 39.355469 C 262.386719 40.074219 261.753906 40.804688 261.179688 41.546875 C 260.929688 41.871094 260.464844 41.929688 260.140625 41.679688 C 259.820312 41.425781 259.761719 40.960938 260.011719 40.636719"/></g></g></g></g><g clip-path="url(#y)"><g clip-path="url(#z)"><g clip-path="url(#A)"><g clip-path="url(#B)"><path fill="#100F0D" d="M 266.488281 34.328125 C 268.074219 33.132812 269.777344 32.042969 271.558594 31.089844 C 271.921875 30.902344 272.367188 31.039062 272.558594 31.402344 C 272.75 31.761719 272.613281 32.207031 272.253906 32.402344 C 270.542969 33.3125 268.902344 34.363281 267.378906 35.511719 C 267.054688 35.761719 266.589844 35.695312 266.34375 35.367188 C 266.097656 35.039062 266.164062 34.574219 266.488281 34.328125 Z M 277.101562 28.726562 C 278.316406 28.335938 279.542969 28.023438 280.777344 27.800781 C 281.523438 27.664062 282.277344 27.558594 283.027344 27.492188 C 283.433594 27.457031 283.796875 27.757812 283.832031 28.164062 C 283.871094 28.570312 283.570312 28.933594 283.164062 28.96875 C 282.457031 29.035156 281.75 29.128906 281.042969 29.257812 C 279.878906 29.46875 278.710938 29.769531 277.554688 30.140625 C 277.167969 30.265625 276.75 30.050781 276.625 29.664062 C 276.5 29.269531 276.714844 28.851562 277.101562 28.726562 Z M 289.117188 27.804688 C 291.097656 28.214844 293.019531 28.949219 294.820312 30.058594 C 295.167969 30.269531 295.277344 30.730469 295.0625 31.078125 C 294.847656 31.425781 294.394531 31.535156 294.042969 31.320312 C 292.394531 30.308594 290.644531 29.632812 288.820312 29.257812 C 288.417969 29.175781 288.164062 28.78125 288.246094 28.382812 C 288.324219 27.980469 288.71875 27.722656 289.117188 27.804688 Z M 299.40625 34.136719 C 300.707031 35.789062 301.671875 37.621094 302.339844 39.523438 C 302.472656 39.910156 302.265625 40.332031 301.882812 40.46875 C 301.496094 40.601562 301.074219 40.398438 300.941406 40.011719 C 300.324219 38.25 299.4375 36.566406 298.246094 35.054688 C 297.992188 34.730469 298.046875 34.269531 298.367188 34.011719 C 298.6875 33.761719 299.15625 33.8125 299.40625 34.136719 Z M 303.472656 45.527344 C 303.5625 47.648438 303.339844 49.71875 302.832031 51.609375 C 302.726562 52.007812 302.320312 52.242188 301.921875 52.136719 C 301.53125 52.027344 301.296875 51.625 301.402344 51.226562 C 301.867188 49.488281 302.078125 47.5625 301.996094 45.589844 C 301.980469 45.183594 302.296875 44.835938 302.703125 44.816406 C 303.113281 44.800781 303.457031 45.117188 303.472656 45.527344 Z M 300.066406 57.148438 C 298.832031 58.605469 297.253906 59.636719 295.414062 59.96875 C 295.105469 60.023438 294.789062 60.0625 294.472656 60.078125 C 294.0625 60.097656 293.714844 59.78125 293.695312 59.371094 C 293.675781 58.960938 293.992188 58.617188 294.398438 58.59375 C 294.65625 58.582031 294.90625 58.554688 295.148438 58.507812 C 296.601562 58.246094 297.871094 57.433594 298.941406 56.183594 C 299.207031 55.875 299.675781 55.839844 299.984375 56.101562 C 300.296875 56.367188 300.332031 56.835938 300.066406 57.148438 Z M 288.503906 58.160156 L 288.488281 58.148438 C 287.589844 57.542969 286.890625 56.925781 286.375 56.277344 C 285.859375 55.628906 285.527344 54.945312 285.402344 54.246094 C 285.296875 53.675781 285.332031 53.105469 285.480469 52.558594 C 285.589844 52.160156 286 51.933594 286.390625 52.039062 C 286.789062 52.148438 287.015625 52.558594 286.910156 52.953125 C 286.816406 53.300781 286.796875 53.636719 286.859375 53.980469 C 286.933594 54.40625 287.136719 54.859375 287.53125 55.351562 C 287.921875 55.847656 288.503906 56.375 289.3125 56.914062 L 289.324219 56.921875 C 289.667969 57.148438 289.757812 57.609375 289.53125 57.953125 C 289.304688 58.292969 288.84375 58.382812 288.503906 58.160156 Z M 289.820312 47.960938 C 291.402344 47.019531 293.292969 46.179688 295.324219 45.464844 C 295.710938 45.328125 296.132812 45.535156 296.269531 45.917969 C 296.40625 46.304688 296.203125 46.730469 295.816406 46.863281 C 293.855469 47.558594 292.046875 48.363281 290.578125 49.238281 C 290.226562 49.445312 289.769531 49.328125 289.5625 48.976562 C 289.355469 48.625 289.46875 48.167969 289.820312 47.960938 Z M 301.097656 43.839844 C 301.648438 43.71875 302.203125 43.609375 302.753906 43.507812 C 304.21875 43.242188 305.664062 43.050781 307.03125 42.945312 C 307.4375 42.910156 307.796875 43.214844 307.824219 43.625 C 307.855469 44.03125 307.554688 44.390625 307.144531 44.421875 C 305.835938 44.523438 304.441406 44.710938 303.019531 44.96875 C 302.484375 45.066406 301.949219 45.175781 301.410156 45.289062 C 301.011719 45.378906 300.617188 45.121094 300.53125 44.722656 C 300.445312 44.324219 300.699219 43.925781 301.097656 43.839844 Z M 313.132812 43.207031 L 313.238281 43.238281 C 315.226562 43.726562 317.066406 44.550781 318.757812 45.625 C 319.101562 45.847656 319.203125 46.300781 318.988281 46.648438 C 318.769531 46.996094 318.308594 47.097656 317.964844 46.878906 C 316.394531 45.878906 314.703125 45.128906 312.882812 44.675781 L 312.792969 44.652344 C 312.398438 44.558594 312.152344 44.160156 312.242188 43.761719 C 312.339844 43.363281 312.738281 43.117188 313.132812 43.207031 Z M 323.394531 49.5625 C 324.734375 51.023438 325.941406 52.65625 327.015625 54.402344 C 327.230469 54.753906 327.121094 55.210938 326.773438 55.425781 C 326.425781 55.636719 325.972656 55.53125 325.757812 55.179688 C 324.726562 53.503906 323.574219 51.949219 322.304688 50.570312 C 322.027344 50.265625 322.046875 49.796875 322.351562 49.519531 C 322.648438 49.242188 323.121094 49.261719 323.394531 49.5625 Z M 329.773438 59.753906 C 330.570312 61.597656 331.242188 63.496094 331.800781 65.40625 C 331.917969 65.796875 331.695312 66.210938 331.300781 66.328125 C 330.910156 66.4375 330.496094 66.214844 330.378906 65.820312 C 329.839844 63.96875 329.183594 62.125 328.417969 60.339844 C 328.253906 59.960938 328.425781 59.527344 328.800781 59.363281 C 329.175781 59.203125 329.613281 59.375 329.773438 59.753906 Z M 333.152344 71.25 C 333.507812 73.316406 333.71875 75.332031 333.792969 77.226562 C 333.804688 77.636719 333.484375 77.980469 333.078125 77.996094 C 332.671875 78.007812 332.328125 77.691406 332.3125 77.28125 C 332.242188 75.457031 332.039062 73.507812 331.695312 71.5 C 331.625 71.097656 331.898438 70.710938 332.300781 70.644531 C 332.703125 70.574219 333.082031 70.847656 333.152344 71.25 Z M 333.714844 83.199219 C 333.625 85.339844 333.503906 87.289062 333.46875 89.089844 C 333.457031 89.5 333.121094 89.824219 332.710938 89.816406 C 332.300781 89.804688 331.976562 89.46875 331.988281 89.058594 C 332.023438 87.210938 332.144531 85.257812 332.238281 83.132812 C 332.253906 82.722656 332.597656 82.410156 333.007812 82.425781 C 333.414062 82.441406 333.730469 82.789062 333.714844 83.199219 Z M 333.84375 94.820312 C 334.199219 96.613281 334.835938 98.296875 335.945312 100 C 336.167969 100.34375 336.074219 100.804688 335.730469 101.027344 C 335.386719 101.25 334.925781 101.15625 334.703125 100.8125 C 333.488281 98.945312 332.777344 97.058594 332.390625 95.109375 C 332.3125 94.703125 332.574219 94.3125 332.972656 94.234375 C 333.375 94.15625 333.765625 94.417969 333.84375 94.820312 Z M 339.730469 104.246094 C 340.519531 104.941406 341.40625 105.648438 342.402344 106.375 C 343.050781 106.847656 343.707031 107.296875 344.367188 107.726562 C 344.710938 107.949219 344.804688 108.410156 344.585938 108.753906 C 344.363281 109.097656 343.902344 109.195312 343.5625 108.96875 C 342.878906 108.527344 342.203125 108.0625 341.53125 107.574219 C 340.503906 106.828125 339.582031 106.09375 338.753906 105.359375 C 338.445312 105.089844 338.417969 104.625 338.683594 104.316406 C 338.957031 104.007812 339.421875 103.976562 339.730469 104.246094 Z M 349.4375 110.535156 C 351.21875 111.359375 353.027344 112.027344 354.859375 112.539062 C 355.25 112.648438 355.484375 113.058594 355.375 113.449219 C 355.265625 113.84375 354.855469 114.078125 354.460938 113.964844 C 352.550781 113.429688 350.671875 112.738281 348.820312 111.882812 C 348.445312 111.710938 348.285156 111.269531 348.457031 110.898438 C 348.625 110.523438 349.0625 110.363281 349.4375 110.535156 Z M 360.527344 113.613281 C 362.433594 113.808594 364.355469 113.839844 366.289062 113.703125 C 366.699219 113.675781 367.054688 113.984375 367.082031 114.390625 C 367.109375 114.800781 366.804688 115.15625 366.398438 115.183594 C 364.378906 115.328125 362.371094 115.296875 360.375 115.09375 C 359.96875 115.050781 359.675781 114.683594 359.714844 114.277344 C 359.757812 113.867188 360.121094 113.574219 360.527344 113.613281 Z M 371.996094 112.816406 C 373.828125 112.371094 375.664062 111.777344 377.5 111.03125 C 377.875 110.875 378.308594 111.058594 378.460938 111.4375 C 378.617188 111.816406 378.433594 112.25 378.054688 112.40625 C 376.160156 113.179688 374.25 113.796875 372.339844 114.257812 C 371.945312 114.351562 371.546875 114.109375 371.449219 113.710938 C 371.355469 113.3125 371.597656 112.914062 371.996094 112.816406 Z M 382.671875 108.453125 C 384.273438 107.480469 385.886719 106.355469 387.519531 105.1875 C 387.851562 104.945312 388.316406 105.023438 388.550781 105.359375 C 388.789062 105.691406 388.710938 106.152344 388.378906 106.390625 C 386.738281 107.566406 385.101562 108.714844 383.441406 109.722656 C 383.089844 109.933594 382.632812 109.824219 382.421875 109.46875 C 382.210938 109.121094 382.320312 108.664062 382.671875 108.453125 Z M 392.371094 101.773438 C 394.054688 100.652344 395.78125 99.609375 397.570312 98.765625 C 397.941406 98.589844 398.378906 98.75 398.554688 99.117188 C 398.730469 99.488281 398.574219 99.933594 398.199219 100.109375 C 396.503906 100.902344 394.839844 101.910156 393.191406 103.011719 C 392.851562 103.238281 392.390625 103.140625 392.164062 102.804688 C 391.9375 102.460938 392.03125 102 392.371094 101.773438 Z M 403.386719 96.929688 L 403.554688 96.90625 C 405.648438 96.625 407.644531 96.789062 409.53125 97.285156 C 409.925781 97.386719 410.164062 97.796875 410.058594 98.191406 C 409.953125 98.585938 409.550781 98.824219 409.15625 98.71875 C 407.4375 98.269531 405.648438 98.121094 403.75 98.378906 L 403.601562 98.398438 C 403.195312 98.457031 402.820312 98.175781 402.761719 97.769531 C 402.699219 97.363281 402.980469 96.992188 403.386719 96.929688 Z M 415.101562 99.78125 C 416.789062 100.84375 418.378906 102.109375 419.878906 103.453125 C 420.183594 103.730469 420.210938 104.199219 419.9375 104.5 C 419.667969 104.804688 419.199219 104.832031 418.894531 104.558594 C 417.433594 103.253906 415.90625 102.039062 414.316406 101.035156 C 413.96875 100.820312 413.863281 100.359375 414.082031 100.015625 C 414.296875 99.667969 414.753906 99.5625 415.101562 99.78125"/></g></g></g></g><path fill="#F4971E" d="M 220.148438 78.578125 C 220.910156 78.578125 221.664062 78.648438 222.40625 78.796875 C 223.152344 78.941406 223.878906 79.160156 224.578125 79.445312 C 225.28125 79.734375 225.949219 80.085938 226.582031 80.5 C 227.210938 80.917969 227.796875 81.390625 228.335938 81.921875 C 228.871094 82.449219 229.351562 83.027344 229.773438 83.652344 C 230.195312 84.273438 230.554688 84.933594 230.84375 85.625 C 231.136719 86.316406 231.355469 87.03125 231.503906 87.765625 C 231.652344 88.5 231.726562 89.242188 231.726562 89.992188 C 231.726562 90.742188 231.652344 91.484375 231.503906 92.222656 C 231.355469 92.957031 231.136719 93.671875 230.84375 94.363281 C 230.554688 95.054688 230.195312 95.714844 229.773438 96.335938 C 229.351562 96.960938 228.871094 97.535156 228.335938 98.066406 C 227.796875 98.597656 227.210938 99.070312 226.582031 99.488281 C 225.949219 99.902344 225.28125 100.253906 224.578125 100.542969 C 223.878906 100.828125 223.152344 101.046875 222.40625 101.191406 C 221.664062 101.335938 220.910156 101.410156 220.148438 101.410156 C 219.390625 101.410156 218.636719 101.335938 217.890625 101.191406 C 217.144531 101.046875 216.421875 100.828125 215.71875 100.542969 C 215.019531 100.253906 214.351562 99.902344 213.71875 99.488281 C 213.085938 99.070312 212.503906 98.597656 211.964844 98.066406 C 211.425781 97.535156 210.949219 96.960938 210.523438 96.335938 C 210.101562 95.714844 209.746094 95.054688 209.457031 94.363281 C 209.164062 93.671875 208.945312 92.957031 208.796875 92.222656 C 208.648438 91.484375 208.574219 90.742188 208.574219 89.992188 C 208.574219 89.242188 208.648438 88.5 208.796875 87.765625 C 208.945312 87.03125 209.164062 86.316406 209.453125 85.625 C 209.746094 84.929688 210.101562 84.273438 210.523438 83.648438 C 210.945312 83.027344 211.425781 82.449219 211.964844 81.917969 C 212.5 81.390625 213.085938 80.917969 213.71875 80.5 C 214.351562 80.082031 215.015625 79.730469 215.71875 79.445312 C 216.421875 79.15625 217.144531 78.941406 217.890625 78.796875 C 218.636719 78.648438 219.390625 78.578125 220.148438 78.578125 Z M 220.148438 78.578125"/><path fill="#D37E18" d="M 220.148438 80.003906 C 220.878906 80.003906 221.601562 80.070312 222.316406 80.207031 C 223.035156 80.339844 223.730469 80.542969 224.410156 80.804688 C 225.085938 81.070312 225.734375 81.398438 226.347656 81.78125 C 226.964844 82.167969 227.539062 82.609375 228.070312 83.101562 C 228.601562 83.59375 229.082031 84.128906 229.507812 84.714844 C 229.9375 85.296875 230.304688 85.910156 230.617188 86.5625 C 230.925781 87.214844 231.171875 87.886719 231.351562 88.585938 C 231.53125 89.28125 231.644531 89.988281 231.6875 90.707031 C 231.703125 90.46875 231.726562 90.234375 231.726562 89.992188 C 231.726562 89.242188 231.652344 88.5 231.503906 87.765625 C 231.355469 87.03125 231.136719 86.316406 230.84375 85.625 C 230.554688 84.933594 230.195312 84.273438 229.773438 83.652344 C 229.351562 83.027344 228.871094 82.449219 228.335938 81.921875 C 227.796875 81.390625 227.210938 80.917969 226.582031 80.5 C 225.949219 80.085938 225.28125 79.734375 224.578125 79.445312 C 223.878906 79.160156 223.152344 78.941406 222.40625 78.796875 C 221.664062 78.648438 220.910156 78.578125 220.148438 78.578125 C 219.390625 78.578125 218.636719 78.648438 217.890625 78.796875 C 217.144531 78.941406 216.421875 79.160156 215.71875 79.445312 C 215.019531 79.734375 214.351562 80.085938 213.71875 80.5 C 213.085938 80.917969 212.503906 81.390625 211.964844 81.921875 C 211.425781 82.449219 210.949219 83.027344 210.523438 83.652344 C 210.101562 84.273438 209.746094 84.933594 209.457031 85.625 C 209.164062 86.316406 208.945312 87.03125 208.796875 87.765625 C 208.648438 88.5 208.574219 89.242188 208.574219 89.992188 C 208.574219 90.234375 208.597656 90.46875 208.609375 90.707031 C 208.65625 89.988281 208.769531 89.28125 208.949219 88.585938 C 209.128906 87.886719 209.375 87.214844 209.683594 86.5625 C 209.996094 85.910156 210.363281 85.292969 210.792969 84.710938 C 211.21875 84.128906 211.699219 83.59375 212.230469 83.101562 C 212.761719 82.605469 213.335938 82.167969 213.949219 81.78125 C 214.566406 81.398438 215.210938 81.070312 215.890625 80.804688 C 216.570312 80.542969 217.265625 80.339844 217.980469 80.207031 C 218.699219 80.070312 219.421875 80.003906 220.148438 80.003906 Z M 220.148438 80.003906"/><path fill="#FFBE1D" d="M 235.34375 89.992188 C 235.34375 90.976562 235.246094 91.953125 235.050781 92.917969 C 234.855469 93.882812 234.566406 94.820312 234.1875 95.726562 C 233.804688 96.636719 233.335938 97.5 232.78125 98.320312 C 232.226562 99.136719 231.597656 99.894531 230.890625 100.589844 C 230.1875 101.285156 229.417969 101.90625 228.589844 102.453125 C 227.761719 103 226.886719 103.460938 225.964844 103.839844 C 225.042969 104.214844 224.09375 104.5 223.113281 104.691406 C 222.136719 104.882812 221.148438 104.980469 220.148438 104.980469 C 219.152344 104.980469 218.164062 104.882812 217.1875 104.691406 C 216.207031 104.5 215.257812 104.214844 214.335938 103.839844 C 213.414062 103.460938 212.539062 103 211.710938 102.453125 C 210.878906 101.90625 210.113281 101.285156 209.40625 100.589844 C 208.703125 99.894531 208.070312 99.136719 207.515625 98.320312 C 206.964844 97.5 206.496094 96.636719 206.113281 95.726562 C 205.730469 94.820312 205.445312 93.882812 205.25 92.917969 C 205.054688 91.953125 204.957031 90.976562 204.957031 89.992188 C 204.957031 89.011719 205.054688 88.035156 205.25 87.070312 C 205.445312 86.105469 205.730469 85.167969 206.113281 84.257812 C 206.496094 83.351562 206.964844 82.488281 207.515625 81.667969 C 208.070312 80.851562 208.703125 80.09375 209.40625 79.398438 C 210.113281 78.703125 210.878906 78.082031 211.710938 77.535156 C 212.539062 76.988281 213.414062 76.527344 214.335938 76.148438 C 215.257812 75.773438 216.207031 75.488281 217.1875 75.296875 C 218.164062 75.105469 219.152344 75.007812 220.148438 75.007812 C 221.148438 75.007812 222.136719 75.101562 223.113281 75.292969 C 224.09375 75.484375 225.042969 75.769531 225.96875 76.144531 C 226.890625 76.519531 227.765625 76.980469 228.59375 77.527344 C 229.425781 78.074219 230.191406 78.695312 230.898438 79.390625 C 231.605469 80.089844 232.234375 80.84375 232.789062 81.664062 C 233.34375 82.484375 233.808594 83.347656 234.191406 84.257812 C 234.574219 85.164062 234.859375 86.101562 235.054688 87.070312 C 235.246094 88.035156 235.34375 89.007812 235.34375 89.992188 Z M 231.726562 89.992188 C 231.726562 89.242188 231.652344 88.5 231.503906 87.765625 C 231.355469 87.03125 231.136719 86.316406 230.84375 85.625 C 230.554688 84.933594 230.195312 84.273438 229.773438 83.652344 C 229.351562 83.027344 228.871094 82.449219 228.335938 81.921875 C 227.796875 81.390625 227.210938 80.917969 226.582031 80.5 C 225.949219 80.085938 225.28125 79.734375 224.578125 79.445312 C 223.878906 79.160156 223.152344 78.941406 222.40625 78.796875 C 221.664062 78.648438 220.910156 78.578125 220.148438 78.578125 C 219.390625 78.578125 218.636719 78.648438 217.890625 78.796875 C 217.144531 78.941406 216.421875 79.160156 215.71875 79.445312 C 215.019531 79.734375 214.351562 80.085938 213.71875 80.5 C 213.085938 80.917969 212.503906 81.390625 211.964844 81.921875 C 211.425781 82.449219 210.949219 83.027344 210.523438 83.652344 C 210.101562 84.273438 209.746094 84.933594 209.457031 85.625 C 209.164062 86.316406 208.945312 87.03125 208.796875 87.765625 C 208.648438 88.5 208.574219 89.242188 208.574219 89.992188 C 208.574219 90.742188 208.648438 91.484375 208.796875 92.222656 C 208.945312 92.957031 209.164062 93.671875 209.457031 94.363281 C 209.746094 95.054688 210.101562 95.714844 210.523438 96.335938 C 210.949219 96.960938 211.425781 97.535156 211.964844 98.066406 C 212.503906 98.597656 213.085938 99.070312 213.71875 99.488281 C 214.351562 99.902344 215.019531 100.253906 215.71875 100.542969 C 216.421875 100.828125 217.144531 101.046875 217.890625 101.191406 C 218.636719 101.335938 219.390625 101.410156 220.148438 101.410156 C 220.910156 101.410156 221.664062 101.339844 222.40625 101.191406 C 223.152344 101.046875 223.878906 100.828125 224.578125 100.542969 C 225.28125 100.253906 225.949219 99.902344 226.582031 99.488281 C 227.214844 99.070312 227.796875 98.597656 228.335938 98.066406 C 228.875 97.539062 229.351562 96.960938 229.773438 96.335938 C 230.199219 95.714844 230.554688 95.054688 230.84375 94.363281 C 231.136719 93.671875 231.355469 92.957031 231.503906 92.222656 C 231.652344 91.484375 231.726562 90.742188 231.726562 89.992188 Z M 231.726562 89.992188"/><path fill="#F7CB86" d="M 208.023438 91.421875 C 208.023438 97.730469 213.449219 102.839844 220.148438 102.839844 C 226.851562 102.839844 232.277344 97.730469 232.277344 91.421875 C 232.277344 89.839844 231.945312 88.332031 231.28125 86.894531 C 231.40625 87.316406 231.503906 87.746094 231.574219 88.179688 C 231.644531 88.617188 231.691406 89.050781 231.714844 89.492188 C 231.734375 89.933594 231.730469 90.371094 231.699219 90.808594 C 231.667969 91.25 231.609375 91.683594 231.527344 92.117188 C 231.445312 92.550781 231.339844 92.976562 231.207031 93.398438 C 231.078125 93.816406 230.921875 94.230469 230.738281 94.632812 C 230.558594 95.035156 230.355469 95.425781 230.132812 95.804688 C 229.90625 96.183594 229.65625 96.550781 229.386719 96.902344 C 229.121094 97.253906 228.832031 97.585938 228.523438 97.90625 C 228.214844 98.222656 227.890625 98.523438 227.546875 98.804688 C 227.203125 99.085938 226.84375 99.347656 226.46875 99.585938 C 226.097656 99.828125 225.710938 100.046875 225.3125 100.242188 C 224.910156 100.4375 224.5 100.609375 224.082031 100.761719 C 223.664062 100.910156 223.234375 101.035156 222.800781 101.136719 C 222.367188 101.238281 221.925781 101.3125 221.484375 101.363281 C 221.042969 101.414062 220.597656 101.441406 220.148438 101.441406 C 219.703125 101.441406 219.257812 101.414062 218.816406 101.363281 C 218.371094 101.3125 217.933594 101.238281 217.5 101.136719 C 217.066406 101.035156 216.636719 100.910156 216.21875 100.761719 C 215.800781 100.609375 215.390625 100.4375 214.988281 100.242188 C 214.589844 100.046875 214.203125 99.828125 213.828125 99.585938 C 213.457031 99.347656 213.097656 99.085938 212.753906 98.804688 C 212.410156 98.523438 212.085938 98.222656 211.777344 97.90625 C 211.46875 97.585938 211.179688 97.253906 210.910156 96.902344 C 210.644531 96.550781 210.394531 96.183594 210.167969 95.804688 C 209.945312 95.425781 209.742188 95.035156 209.558594 94.632812 C 209.378906 94.230469 209.222656 93.816406 209.09375 93.398438 C 208.960938 92.976562 208.851562 92.550781 208.769531 92.117188 C 208.691406 91.683594 208.632812 91.25 208.601562 90.808594 C 208.570312 90.371094 208.566406 89.933594 208.585938 89.492188 C 208.609375 89.050781 208.65625 88.617188 208.726562 88.179688 C 208.796875 87.746094 208.894531 87.316406 209.019531 86.894531 C 208.355469 88.332031 208.023438 89.84375 208.023438 91.421875 Z M 208.023438 91.421875"/><path fill="#FCD597" d="M 220.148438 76.4375 C 226.308594 76.4375 231.648438 79.730469 234.292969 84.550781 C 232.082031 78.96875 226.59375 75.007812 220.148438 75.007812 C 213.707031 75.007812 208.214844 78.96875 206.007812 84.550781 C 208.652344 79.730469 213.988281 76.4375 220.148438 76.4375 Z M 220.148438 76.4375"/><path fill="#F4971E" d="M 204.957031 89.992188 C 204.957031 90.976562 205.054688 91.953125 205.25 92.917969 C 205.445312 93.882812 205.730469 94.820312 206.113281 95.726562 C 206.496094 96.636719 206.964844 97.5 207.515625 98.320312 C 208.070312 99.136719 208.703125 99.894531 209.40625 100.589844 C 210.113281 101.285156 210.878906 101.90625 211.710938 102.453125 C 212.539062 103 213.414062 103.460938 214.335938 103.839844 C 215.257812 104.214844 216.207031 104.5 217.1875 104.691406 C 218.164062 104.882812 219.152344 104.980469 220.148438 104.980469 C 221.148438 104.980469 222.136719 104.882812 223.113281 104.691406 C 224.09375 104.5 225.042969 104.214844 225.964844 103.839844 C 226.886719 103.460938 227.761719 103 228.589844 102.453125 C 229.417969 101.90625 230.1875 101.285156 230.890625 100.589844 C 231.597656 99.894531 232.226562 99.136719 232.78125 98.320312 C 233.335938 97.5 233.804688 96.636719 234.1875 95.726562 C 234.566406 94.820312 234.855469 93.882812 235.050781 92.917969 C 235.246094 91.953125 235.34375 90.976562 235.34375 89.992188 L 235.34375 93.5625 C 235.34375 94.457031 235.261719 95.34375 235.101562 96.222656 C 234.941406 97.101562 234.703125 97.960938 234.386719 98.796875 C 234.070312 99.632812 233.683594 100.4375 233.21875 101.207031 C 232.757812 101.976562 232.230469 102.699219 231.636719 103.371094 C 231.042969 104.046875 230.394531 104.667969 229.6875 105.226562 C 228.984375 105.789062 228.234375 106.28125 227.4375 106.710938 C 226.640625 107.140625 225.816406 107.492188 224.957031 107.777344 C 224.09375 108.058594 223.21875 108.261719 222.320312 108.390625 C 220.875 108.601562 219.425781 108.601562 217.980469 108.390625 C 217.082031 108.261719 216.203125 108.058594 215.34375 107.773438 C 214.484375 107.492188 213.660156 107.136719 212.863281 106.707031 C 212.070312 106.277344 211.320312 105.785156 210.613281 105.222656 C 209.910156 104.664062 209.257812 104.042969 208.667969 103.371094 C 208.074219 102.695312 207.546875 101.972656 207.082031 101.203125 C 206.621094 100.433594 206.230469 99.632812 205.914062 98.796875 C 205.597656 97.957031 205.359375 97.101562 205.199219 96.222656 C 205.039062 95.339844 204.957031 94.457031 204.957031 93.5625 Z M 204.957031 89.992188"/><path fill="#F4971E" d="M 238.960938 102.125 L 238.960938 106.40625 L 227.976562 106.40625 C 229.835938 105.304688 231.378906 103.878906 232.613281 102.125 Z M 238.960938 102.125"/><path fill="#FFBE1D" d="M 212.320312 106.40625 L 201.339844 106.40625 L 201.339844 102.125 L 207.683594 102.125 C 208.917969 103.878906 210.464844 105.304688 212.320312 106.40625 Z M 212.320312 106.40625"/><g clip-path="url(#C)"><path fill="#F4971E" d="M 217.980469 108.390625 L 217.980469 110.6875 L 199.167969 110.6875 L 199.167969 106.40625 L 212.320312 106.40625 C 214.070312 107.449219 215.957031 108.109375 217.980469 108.390625 Z M 217.980469 108.390625"/></g><g clip-path="url(#D)"><path fill="#FFBE1D" d="M 241.128906 106.40625 L 241.128906 110.6875 L 222.320312 110.6875 L 222.320312 108.390625 C 224.34375 108.109375 226.230469 107.449219 227.976562 106.40625 Z M 241.128906 106.40625"/></g><path fill="#FFBE1D" d="M 201.339844 110.6875 L 220.148438 110.6875 L 220.148438 114.96875 L 201.339844 114.96875 Z M 201.339844 110.6875"/><g clip-path="url(#E)"><path fill="#F4971E" d="M 199.167969 114.96875 L 217.980469 114.96875 L 217.980469 119.25 L 199.167969 119.25 Z M 199.167969 114.96875"/></g><path fill="#F4971E" d="M 238.960938 114.96875 L 220.148438 114.96875 L 220.148438 110.6875 L 238.960938 110.6875 Z M 238.960938 114.96875"/><g clip-path="url(#F)"><path fill="#FFBE1D" d="M 241.128906 119.25 L 222.320312 119.25 L 222.320312 114.96875 L 241.128906 114.96875 Z M 241.128906 119.25"/></g><path fill="#E2A01E" d="M 236.066406 108.546875 C 236.066406 108.347656 235.996094 108.179688 235.855469 108.042969 C 235.710938 107.902344 235.542969 107.832031 235.34375 107.832031 C 235.144531 107.832031 234.972656 107.902344 234.832031 108.042969 C 234.691406 108.179688 234.617188 108.347656 234.617188 108.546875 L 234.617188 110.6875 L 236.066406 110.6875 Z M 236.066406 108.546875"/><path fill="#E2A01E" d="M 233.171875 108.546875 C 233.171875 108.347656 233.101562 108.179688 232.960938 108.042969 C 232.820312 107.902344 232.648438 107.832031 232.449219 107.832031 C 232.25 107.832031 232.078125 107.902344 231.9375 108.042969 C 231.796875 108.179688 231.726562 108.347656 231.726562 108.546875 L 231.726562 110.6875 L 233.171875 110.6875 Z M 233.171875 108.546875"/><path fill="#E2A01E" d="M 232.171875 106.40625 L 227.976562 106.40625 C 226.230469 107.449219 224.34375 108.109375 222.320312 108.390625 L 222.320312 110.6875 L 223.695312 110.6875 C 225.507812 110.324219 227.222656 109.691406 228.832031 108.789062 L 228.832031 110.6875 L 230.277344 110.6875 L 230.277344 107.882812 C 230.941406 107.433594 231.574219 106.941406 232.171875 106.40625 Z M 232.171875 106.40625"/><g clip-path="url(#G)"><path fill="#D37E18" d="M 201.339844 114.96875 L 202.785156 114.96875 L 202.785156 119.25 L 201.339844 119.25 Z M 201.339844 114.96875"/></g><g clip-path="url(#H)"><path fill="#D37E18" d="M 204.234375 114.96875 L 205.679688 114.96875 L 205.679688 119.25 L 204.234375 119.25 Z M 204.234375 114.96875"/></g><g clip-path="url(#I)"><path fill="#D37E18" d="M 214.363281 114.96875 L 215.808594 114.96875 L 215.808594 119.25 L 214.363281 119.25 Z M 214.363281 114.96875"/></g><g clip-path="url(#J)"><path fill="#D37E18" d="M 207.851562 116.394531 C 207.652344 116.394531 207.480469 116.464844 207.339844 116.605469 C 207.199219 116.742188 207.128906 116.914062 207.128906 117.109375 L 207.128906 119.25 L 208.574219 119.25 L 208.574219 117.109375 C 208.574219 116.914062 208.503906 116.742188 208.363281 116.605469 C 208.222656 116.464844 208.050781 116.394531 207.851562 116.394531 Z M 207.851562 116.394531"/></g><g clip-path="url(#K)"><path fill="#D37E18" d="M 212.191406 116.394531 C 211.992188 116.394531 211.820312 116.464844 211.679688 116.605469 C 211.539062 116.742188 211.46875 116.914062 211.46875 117.109375 L 211.46875 119.25 L 212.914062 119.25 L 212.914062 117.109375 C 212.914062 116.914062 212.84375 116.742188 212.703125 116.605469 C 212.5625 116.464844 212.390625 116.394531 212.191406 116.394531 Z M 212.191406 116.394531"/></g><g clip-path="url(#L)"><path fill="#E2A01E" d="M 237.511719 114.96875 L 238.960938 114.96875 L 238.960938 119.25 L 237.511719 119.25 Z M 237.511719 114.96875"/></g><g clip-path="url(#M)"><path fill="#E2A01E" d="M 234.617188 114.96875 L 236.066406 114.96875 L 236.066406 119.25 L 234.617188 119.25 Z M 234.617188 114.96875"/></g><g clip-path="url(#N)"><path fill="#E2A01E" d="M 224.492188 114.96875 L 225.9375 114.96875 L 225.9375 119.25 L 224.492188 119.25 Z M 224.492188 114.96875"/></g><g clip-path="url(#O)"><path fill="#E2A01E" d="M 232.449219 116.394531 C 232.25 116.394531 232.078125 116.464844 231.9375 116.605469 C 231.796875 116.742188 231.726562 116.914062 231.726562 117.109375 L 231.726562 119.25 L 233.171875 119.25 L 233.171875 117.109375 C 233.171875 116.914062 233.101562 116.742188 232.960938 116.605469 C 232.820312 116.464844 232.648438 116.394531 232.449219 116.394531 Z M 232.449219 116.394531"/></g><g clip-path="url(#P)"><path fill="#E2A01E" d="M 228.109375 116.394531 C 227.90625 116.394531 227.738281 116.464844 227.597656 116.605469 C 227.453125 116.742188 227.382812 116.914062 227.382812 117.109375 L 227.382812 119.25 L 228.832031 119.25 L 228.832031 117.109375 C 228.832031 116.914062 228.761719 116.742188 228.621094 116.605469 C 228.476562 116.464844 228.308594 116.394531 228.109375 116.394531 Z M 228.109375 116.394531"/></g><path fill="#D37E18" d="M 205.679688 108.546875 C 205.679688 108.347656 205.609375 108.179688 205.46875 108.042969 C 205.328125 107.902344 205.15625 107.832031 204.957031 107.832031 C 204.757812 107.832031 204.585938 107.902344 204.445312 108.042969 C 204.304688 108.179688 204.234375 108.347656 204.234375 108.546875 L 204.234375 110.6875 L 205.679688 110.6875 Z M 205.679688 108.546875"/><path fill="#D37E18" d="M 208.574219 108.546875 C 208.574219 108.347656 208.503906 108.179688 208.363281 108.042969 C 208.222656 107.902344 208.050781 107.832031 207.851562 107.832031 C 207.652344 107.832031 207.480469 107.902344 207.339844 108.042969 C 207.199219 108.179688 207.128906 108.347656 207.128906 108.546875 L 207.128906 110.6875 L 208.574219 110.6875 Z M 208.574219 108.546875"/><path fill="#D37E18" d="M 212.320312 106.40625 L 208.128906 106.40625 C 208.726562 106.941406 209.355469 107.433594 210.019531 107.882812 L 210.019531 110.6875 L 211.46875 110.6875 L 211.46875 108.789062 C 213.074219 109.691406 214.785156 110.324219 216.597656 110.6875 L 217.980469 110.6875 L 217.980469 108.390625 C 215.957031 108.109375 214.070312 107.449219 212.320312 106.40625 Z M 212.320312 106.40625"/><path fill="#E2A01E" d="M 203.511719 110.6875 L 204.957031 110.6875 L 204.957031 114.96875 L 203.511719 114.96875 Z M 203.511719 110.6875"/><path fill="#E2A01E" d="M 216.53125 110.6875 L 217.980469 110.6875 L 217.980469 114.96875 L 216.53125 114.96875 Z M 216.53125 110.6875"/><path fill="#E2A01E" d="M 207.128906 112.113281 C 206.925781 112.113281 206.757812 112.183594 206.617188 112.324219 C 206.472656 112.460938 206.402344 112.628906 206.402344 112.828125 L 206.402344 114.96875 L 207.851562 114.96875 L 207.851562 112.828125 C 207.851562 112.628906 207.78125 112.460938 207.640625 112.324219 C 207.496094 112.183594 207.328125 112.113281 207.128906 112.113281 Z M 207.128906 112.113281"/><path fill="#E2A01E" d="M 214.363281 112.113281 C 214.164062 112.113281 213.992188 112.183594 213.851562 112.324219 C 213.710938 112.460938 213.636719 112.628906 213.636719 112.828125 L 213.636719 114.96875 L 215.085938 114.96875 L 215.085938 112.828125 C 215.085938 112.628906 215.015625 112.460938 214.875 112.324219 C 214.730469 112.183594 214.5625 112.113281 214.363281 112.113281 Z M 214.363281 112.113281"/><path fill="#E2A01E" d="M 211.46875 112.113281 C 211.269531 112.113281 211.097656 112.183594 210.957031 112.324219 C 210.816406 112.460938 210.746094 112.628906 210.746094 112.828125 L 210.746094 114.96875 L 212.191406 114.96875 L 212.191406 112.828125 C 212.191406 112.628906 212.121094 112.460938 211.980469 112.324219 C 211.839844 112.183594 211.667969 112.113281 211.46875 112.113281 Z M 211.46875 112.113281"/><path fill="#D37E18" d="M 235.34375 110.6875 L 236.789062 110.6875 L 236.789062 114.96875 L 235.34375 114.96875 Z M 235.34375 110.6875"/><path fill="#D37E18" d="M 222.320312 110.6875 L 223.765625 110.6875 L 223.765625 114.96875 L 222.320312 114.96875 Z M 222.320312 110.6875"/><path fill="#D37E18" d="M 233.171875 112.113281 C 232.972656 112.113281 232.800781 112.183594 232.660156 112.324219 C 232.519531 112.460938 232.449219 112.628906 232.449219 112.828125 L 232.449219 114.96875 L 233.894531 114.96875 L 233.894531 112.828125 C 233.894531 112.628906 233.824219 112.460938 233.683594 112.324219 C 233.542969 112.183594 233.371094 112.113281 233.171875 112.113281 Z M 233.171875 112.113281"/><path fill="#D37E18" d="M 225.9375 112.113281 C 225.738281 112.113281 225.566406 112.183594 225.425781 112.324219 C 225.285156 112.460938 225.214844 112.628906 225.214844 112.828125 L 225.214844 114.96875 L 226.660156 114.96875 L 226.660156 112.828125 C 226.660156 112.628906 226.589844 112.460938 226.449219 112.324219 C 226.308594 112.183594 226.136719 112.113281 225.9375 112.113281 Z M 225.9375 112.113281"/><path fill="#D37E18" d="M 228.832031 112.113281 C 228.632812 112.113281 228.460938 112.183594 228.320312 112.324219 C 228.179688 112.460938 228.109375 112.628906 228.109375 112.828125 L 228.109375 114.96875 L 229.554688 114.96875 L 229.554688 112.828125 C 229.554688 112.628906 229.484375 112.460938 229.34375 112.324219 C 229.203125 112.183594 229.03125 112.113281 228.832031 112.113281 Z M 228.832031 112.113281"/><path fill="#E2A01E" d="M 204.957031 102.546875 C 205.160156 102.886719 205.371094 103.21875 205.601562 103.546875 C 205.855469 103.90625 206.125 104.25 206.402344 104.589844 L 206.402344 106.40625 L 207.851562 106.40625 L 207.851562 106.140625 C 207.945312 106.226562 208.035156 106.320312 208.128906 106.40625 L 212.320312 106.40625 C 210.464844 105.304688 208.917969 103.878906 207.683594 102.125 L 203.511719 102.125 L 203.511719 106.40625 L 204.957031 106.40625 Z M 204.957031 102.546875"/><path fill="#D37E18" d="M 232.613281 102.125 C 231.378906 103.878906 229.835938 105.304688 227.976562 106.40625 L 232.171875 106.40625 C 232.265625 106.320312 232.355469 106.226562 232.449219 106.140625 L 232.449219 106.40625 L 233.894531 106.40625 L 233.894531 104.589844 C 234.171875 104.253906 234.4375 103.914062 234.691406 103.558594 C 234.921875 103.226562 235.136719 102.886719 235.34375 102.542969 L 235.34375 106.40625 L 236.789062 106.40625 L 236.789062 102.125 Z M 232.613281 102.125"/><path fill="#F7C257" d="M 225.199219 92.492188 C 225.199219 91.972656 225.097656 91.46875 224.894531 90.988281 C 224.695312 90.507812 224.40625 90.085938 224.03125 89.714844 C 223.660156 89.347656 223.230469 89.066406 222.742188 88.867188 C 222.253906 88.667969 221.746094 88.566406 221.21875 88.566406 L 219.046875 88.566406 C 218.90625 88.566406 218.765625 88.539062 218.632812 88.484375 C 218.5 88.429688 218.382812 88.355469 218.28125 88.253906 C 218.179688 88.152344 218.101562 88.035156 218.046875 87.90625 C 217.992188 87.773438 217.964844 87.636719 217.964844 87.496094 C 217.964844 87.355469 217.992188 87.21875 218.046875 87.085938 C 218.101562 86.957031 218.179688 86.839844 218.28125 86.738281 C 218.382812 86.640625 218.5 86.5625 218.632812 86.507812 C 218.765625 86.453125 218.90625 86.425781 219.046875 86.425781 L 224.476562 86.425781 L 224.476562 83.570312 L 222.304688 83.570312 L 222.304688 81.429688 C 222.304688 81.234375 222.234375 81.066406 222.09375 80.925781 C 221.953125 80.785156 221.78125 80.71875 221.582031 80.71875 C 221.382812 80.71875 221.210938 80.785156 221.070312 80.925781 C 220.929688 81.066406 220.859375 81.234375 220.859375 81.429688 L 220.859375 83.570312 L 219.410156 83.570312 L 219.410156 81.429688 C 219.410156 81.234375 219.339844 81.066406 219.199219 80.925781 C 219.058594 80.785156 218.886719 80.71875 218.6875 80.71875 C 218.488281 80.71875 218.316406 80.785156 218.175781 80.925781 C 218.035156 81.066406 217.964844 81.234375 217.964844 81.429688 L 217.964844 83.722656 C 217.5 83.851562 217.078125 84.058594 216.691406 84.335938 C 216.304688 84.617188 215.980469 84.957031 215.714844 85.351562 C 215.453125 85.75 215.269531 86.179688 215.164062 86.640625 C 215.0625 87.105469 215.042969 87.570312 215.109375 88.039062 C 215.175781 88.507812 215.320312 88.949219 215.550781 89.367188 C 215.777344 89.78125 216.074219 90.144531 216.4375 90.457031 C 216.796875 90.769531 217.203125 91.007812 217.652344 91.171875 C 218.105469 91.339844 218.570312 91.421875 219.046875 91.421875 L 221.21875 91.421875 C 221.363281 91.421875 221.5 91.449219 221.632812 91.503906 C 221.765625 91.558594 221.886719 91.632812 221.988281 91.734375 C 222.089844 91.835938 222.167969 91.949219 222.222656 92.082031 C 222.277344 92.210938 222.304688 92.347656 222.304688 92.492188 C 222.304688 92.632812 222.277344 92.769531 222.222656 92.902344 C 222.167969 93.03125 222.089844 93.148438 221.988281 93.25 C 221.886719 93.347656 221.765625 93.425781 221.632812 93.480469 C 221.5 93.535156 221.363281 93.5625 221.21875 93.5625 L 215.792969 93.5625 L 215.792969 96.414062 L 217.964844 96.414062 L 217.964844 98.554688 C 217.964844 98.753906 218.035156 98.921875 218.175781 99.0625 C 218.316406 99.199219 218.488281 99.269531 218.6875 99.269531 C 218.886719 99.269531 219.058594 99.199219 219.199219 99.0625 C 219.339844 98.921875 219.410156 98.753906 219.410156 98.554688 L 219.410156 96.414062 L 220.859375 96.414062 L 220.859375 98.554688 C 220.859375 98.753906 220.929688 98.921875 221.070312 99.0625 C 221.210938 99.199219 221.382812 99.269531 221.582031 99.269531 C 221.78125 99.269531 221.953125 99.199219 222.09375 99.0625 C 222.234375 98.921875 222.304688 98.753906 222.304688 98.554688 L 222.304688 96.265625 C 222.722656 96.148438 223.109375 95.96875 223.464844 95.726562 C 223.824219 95.488281 224.132812 95.195312 224.394531 94.855469 C 224.652344 94.515625 224.851562 94.144531 224.992188 93.738281 C 225.128906 93.332031 225.199219 92.917969 225.199219 92.492188 Z M 225.199219 92.492188"/><path fill="#D37E18" d="M 201.339844 106.40625 L 202.785156 106.40625 L 202.785156 110.6875 L 201.339844 110.6875 Z M 201.339844 106.40625"/><path fill="#E2A01E" d="M 237.511719 106.40625 L 238.960938 106.40625 L 238.960938 110.6875 L 237.511719 110.6875 Z M 237.511719 106.40625"/><g clip-path="url(#Q)"><g clip-path="url(#R)"><g clip-path="url(#S)"><g clip-path="url(#T)"><path fill="#100F0D" d="M 240.476562 46.550781 C 240.3125 46.710938 240.167969 46.90625 240.035156 47.128906 C 240.097656 47.503906 240.128906 47.882812 240.144531 48.277344 C 240.207031 49.753906 239.554688 54.5 239.554688 54.5 C 239.554688 54.5 239.464844 54.421875 239.546875 54.492188 C 239.167969 54.734375 236.664062 56.210938 233.101562 55.640625 C 232.964844 55.726562 232.847656 55.8125 232.757812 55.902344 C 230.574219 58.035156 230.523438 61.480469 232.625 63.632812 C 234.644531 65.863281 238.121094 66.0625 240.429688 64.066406 C 240.523438 63.984375 240.621094 63.875 240.71875 63.746094 C 240.402344 60.1875 242.074219 57.828125 242.34375 57.472656 C 242.410156 57.554688 242.339844 57.464844 242.339844 57.464844 C 242.339844 57.464844 247.171875 57.164062 248.65625 57.332031 C 249.050781 57.378906 249.433594 57.4375 249.804688 57.527344 C 250.035156 57.410156 250.246094 57.28125 250.421875 57.132812 C 253.140625 54.777344 253.710938 50.902344 251.953125 47.957031 C 251.980469 46.253906 252.851562 45.574219 253.230469 44.683594 C 252.304688 44.992188 251.554688 45.800781 249.835938 45.703125 C 246.996094 43.757812 243.050781 44.035156 240.476562 46.550781"/></g></g></g></g><g clip-path="url(#U)"><g clip-path="url(#V)"><g clip-path="url(#W)"><g clip-path="url(#X)"><path fill="#F6DE05" d="M 238.285156 55.109375 C 237.371094 55.464844 236.019531 55.820312 234.371094 55.761719 C 235.460938 56.753906 236.574219 57.851562 237.65625 59.007812 C 238.742188 60.160156 239.765625 61.339844 240.6875 62.488281 C 240.75 60.855469 241.207031 59.546875 241.628906 58.671875 C 241.105469 58.066406 240.554688 57.460938 239.992188 56.859375 C 239.425781 56.257812 238.855469 55.671875 238.285156 55.109375"/></g></g></g></g><g clip-path="url(#Y)"><g clip-path="url(#Z)"><g clip-path="url(#aa)"><g clip-path="url(#ab)"><path fill="#F6DE05" d="M 240.339844 46.695312 C 240.230469 46.828125 240.128906 46.96875 240.035156 47.128906 C 240.097656 47.503906 240.128906 47.882812 240.144531 48.277344 C 240.171875 48.929688 240.058594 50.222656 239.925781 51.460938 C 240.875 52.34375 241.835938 53.300781 242.773438 54.300781 C 243.714844 55.296875 244.609375 56.316406 245.429688 57.316406 C 246.6875 57.273438 248 57.257812 248.65625 57.332031 C 249.050781 57.378906 249.433594 57.4375 249.804688 57.527344 C 249.972656 57.441406 250.125 57.355469 250.261719 57.253906 C 248.964844 55.46875 247.375 53.5625 245.613281 51.691406 C 243.851562 49.816406 242.046875 48.109375 240.339844 46.695312"/></g></g></g></g><g clip-path="url(#ac)"><g clip-path="url(#ad)"><g clip-path="url(#ae)"><g clip-path="url(#af)"><path fill="#F6DE05" d="M 243.683594 44.703125 C 245.292969 46.03125 247.023438 47.664062 248.6875 49.4375 C 250.117188 50.953125 251.4375 52.515625 252.558594 53.992188 C 253.144531 52.300781 253.089844 50.433594 252.371094 48.769531 C 251.933594 48.277344 251.484375 47.785156 251.023438 47.289062 C 250.335938 46.5625 249.644531 45.859375 248.957031 45.1875 C 247.320312 44.378906 245.433594 44.214844 243.683594 44.703125"/></g></g></g></g><g clip-path="url(#ag)"><g clip-path="url(#ah)"><g clip-path="url(#ai)"><g clip-path="url(#aj)"><path fill="#100F0D" d="M 238.398438 72.085938 C 238.421875 72.148438 238.441406 72.214844 238.460938 72.277344 C 238.613281 72.8125 238.558594 73.390625 238.308594 73.910156 C 238.066406 74.414062 237.652344 74.828125 237.140625 75.078125 C 236.269531 75.507812 235.226562 75.460938 234.207031 74.945312 C 233.335938 74.507812 232.546875 73.757812 232.089844 72.941406 C 231.769531 72.363281 231.617188 71.644531 231.554688 71.265625 C 231.222656 69.207031 232.367188 66.296875 234.402344 64.035156 L 234.785156 64.367188 C 232.847656 66.523438 231.753906 69.261719 232.0625 71.179688 C 232.160156 71.777344 232.328125 72.3125 232.542969 72.691406 C 233.273438 74 235.25 75.441406 236.917969 74.621094 C 237.769531 74.203125 238.210938 73.277344 237.964844 72.417969 C 237.773438 71.753906 237.164062 71.042969 236.476562 71.007812 C 236.257812 70.996094 236.015625 71.09375 235.832031 71.265625 C 235.664062 71.421875 235.566406 71.621094 235.5625 71.8125 C 235.5625 71.964844 235.597656 72.128906 235.664062 72.277344 L 235.191406 72.484375 C 235.097656 72.269531 235.046875 72.039062 235.050781 71.816406 C 235.050781 71.484375 235.207031 71.152344 235.480469 70.898438 C 235.769531 70.628906 236.152344 70.480469 236.507812 70.5 C 237.386719 70.542969 238.105469 71.316406 238.398438 72.085938"/></g></g></g></g><g clip-path="url(#ak)"><g clip-path="url(#al)"><g clip-path="url(#am)"><g clip-path="url(#an)"><path fill="#100F0D" d="M 235.46875 72.792969 C 235.804688 73.089844 236.324219 73.054688 236.628906 72.71875 C 236.929688 72.382812 236.902344 71.867188 236.566406 71.574219 C 236.226562 71.277344 235.707031 71.308594 235.402344 71.648438 C 235.097656 71.984375 235.128906 72.5 235.46875 72.792969"/></g></g></g></g><g clip-path="url(#ao)"><g clip-path="url(#ap)"><g clip-path="url(#aq)"><g clip-path="url(#ar)"><path fill="#100F0D" d="M 235.324219 72.445312 C 235.367188 72.554688 235.4375 72.652344 235.523438 72.730469 C 235.824219 72.996094 236.292969 72.964844 236.566406 72.664062 C 236.75 72.457031 236.800781 72.175781 236.707031 71.921875 C 236.664062 71.808594 236.597656 71.714844 236.507812 71.636719 C 236.359375 71.507812 236.171875 71.445312 235.972656 71.457031 C 235.777344 71.46875 235.597656 71.558594 235.46875 71.703125 C 235.285156 71.90625 235.230469 72.191406 235.324219 72.445312 Z M 236.867188 71.859375 C 236.984375 72.171875 236.917969 72.523438 236.695312 72.773438 C 236.355469 73.148438 235.78125 73.183594 235.410156 72.855469 C 235.300781 72.761719 235.214844 72.640625 235.164062 72.503906 C 235.046875 72.191406 235.113281 71.84375 235.339844 71.589844 C 235.5 71.410156 235.722656 71.304688 235.964844 71.289062 C 236.207031 71.273438 236.441406 71.351562 236.621094 71.507812 C 236.730469 71.605469 236.816406 71.726562 236.867188 71.859375"/></g></g></g></g><g clip-path="url(#as)"><g clip-path="url(#at)"><g clip-path="url(#au)"><g clip-path="url(#av)"><path fill="#FFF" d="M 242.339844 57.464844 C 242.339844 57.464844 246.117188 62.3125 249.140625 63.617188 C 251.804688 64.769531 254.6875 61.636719 252.769531 59.421875 C 251.398438 57.847656 250.140625 57.503906 248.65625 57.332031 C 247.171875 57.164062 242.339844 57.464844 242.339844 57.464844"/></g></g></g></g><g clip-path="url(#aw)"><g clip-path="url(#ax)"><g clip-path="url(#ay)"><g clip-path="url(#az)"><path fill="#100F0D" d="M 242.851562 57.6875 C 243.808594 58.851562 246.808594 62.332031 249.246094 63.382812 C 250.476562 63.914062 251.625 63.433594 252.292969 62.808594 C 253.050781 62.097656 253.324219 61.136719 253.003906 60.296875 C 252.910156 60.046875 252.765625 59.8125 252.574219 59.589844 C 251.320312 58.148438 250.175781 57.761719 248.625 57.585938 C 247.457031 57.453125 244.121094 57.617188 242.851562 57.6875 Z M 253.484375 60.113281 C 253.878906 61.148438 253.554688 62.320312 252.644531 63.175781 C 252.183594 63.609375 251.617188 63.910156 251.007812 64.042969 C 250.34375 64.1875 249.664062 64.121094 249.039062 63.851562 C 245.988281 62.535156 242.289062 57.820312 242.132812 57.621094 C 242.078125 57.546875 242.066406 57.445312 242.105469 57.359375 C 242.144531 57.273438 242.230469 57.214844 242.324219 57.210938 C 242.523438 57.195312 247.199219 56.910156 248.6875 57.078125 C 249.339844 57.15625 250.109375 57.277344 250.863281 57.621094 C 251.617188 57.960938 252.304688 58.496094 252.964844 59.257812 C 253.195312 59.523438 253.371094 59.8125 253.484375 60.113281"/></g></g></g></g><g clip-path="url(#aA)"><g clip-path="url(#aB)"><g clip-path="url(#aC)"><g clip-path="url(#aD)"><path fill="#FFF" d="M 249.140625 63.617188 C 246.1875 62.339844 242.503906 57.675781 242.34375 57.472656 C 241.882812 58.082031 237.300781 64.585938 245.675781 72.894531 C 254.136719 81.285156 250.222656 65.117188 249.902344 63.832031 C 249.652344 63.796875 249.394531 63.726562 249.140625 63.617188"/><path fill="#100F0D" d="M 241.652344 66.613281 C 242.433594 68.664062 243.847656 70.71875 245.859375 72.714844 C 248.253906 75.089844 249.394531 75.226562 249.929688 74.925781 C 250.761719 74.457031 251.023438 72.492188 250.667969 69.394531 C 250.402344 67.074219 249.871094 64.785156 249.691406 64.054688 C 249.464844 64.011719 249.246094 63.941406 249.035156 63.851562 C 246.410156 62.714844 243.257812 59.003906 242.355469 57.898438 C 242.078125 58.328125 241.585938 59.1875 241.265625 60.378906 C 240.71875 62.394531 240.847656 64.492188 241.652344 66.613281 Z M 250.144531 63.742188 C 250.148438 63.75 250.148438 63.761719 250.152344 63.769531 C 250.273438 64.25 250.882812 66.773438 251.179688 69.332031 C 251.347656 70.808594 251.382812 72.042969 251.28125 72.996094 C 251.148438 74.25 250.789062 75.023438 250.179688 75.367188 C 249.160156 75.941406 247.628906 75.191406 245.492188 73.074219 C 243.429688 71.027344 241.976562 68.914062 241.171875 66.792969 C 240.328125 64.570312 240.195312 62.371094 240.769531 60.253906 C 241.207031 58.628906 241.929688 57.597656 242.136719 57.320312 C 242.1875 57.257812 242.261719 57.21875 242.34375 57.214844 C 242.421875 57.214844 242.496094 57.25 242.546875 57.3125 C 242.9375 57.808594 246.4375 62.167969 249.246094 63.382812 C 249.46875 63.480469 249.703125 63.546875 249.941406 63.582031 C 250.035156 63.59375 250.109375 63.65625 250.144531 63.742188"/></g></g></g></g><g clip-path="url(#aE)"><g clip-path="url(#aF)"><g clip-path="url(#aG)"><g clip-path="url(#aH)"><path fill="#100F0D" d="M 232.351562 61.851562 C 229.917969 63.691406 226.90625 64.609375 224.851562 64.132812 C 224.476562 64.046875 223.765625 63.847656 223.203125 63.480469 C 222.410156 62.972656 221.714844 62.140625 221.335938 61.25 C 220.890625 60.207031 220.917969 59.175781 221.417969 58.34375 C 221.707031 57.859375 222.152344 57.480469 222.679688 57.277344 C 223.21875 57.066406 223.808594 57.058594 224.335938 57.246094 C 225.152344 57.539062 226.007812 58.359375 225.988281 59.300781 C 225.980469 59.65625 225.800781 60.023438 225.507812 60.289062 C 225.230469 60.539062 224.882812 60.667969 224.554688 60.648438 C 224.328125 60.632812 224.09375 60.566406 223.886719 60.453125 L 224.132812 60.007812 C 224.277344 60.082031 224.441406 60.128906 224.59375 60.140625 C 224.785156 60.152344 224.992188 60.070312 225.164062 59.914062 C 225.351562 59.742188 225.46875 59.511719 225.472656 59.296875 C 225.488281 58.613281 224.816406 57.960938 224.15625 57.722656 C 223.320312 57.425781 222.335938 57.800781 221.859375 58.597656 C 220.910156 60.183594 222.21875 62.242188 223.488281 63.054688 C 223.984375 63.378906 224.632812 63.558594 224.976562 63.640625 C 226.886719 64.082031 229.726562 63.203125 232.042969 61.449219 L 232.351562 61.851562"/></g></g></g></g><g clip-path="url(#aI)"><g clip-path="url(#aJ)"><g clip-path="url(#aK)"><g clip-path="url(#aL)" fill="#100F0D"><path d="M 223.597656 60.164062 C 223.324219 59.808594 223.394531 59.296875 223.757812 59.019531 C 224.117188 58.746094 224.636719 58.8125 224.910156 59.167969 C 225.183594 59.523438 225.113281 60.035156 224.75 60.308594 C 224.386719 60.585938 223.871094 60.519531 223.597656 60.164062"/><path d="M 223.5625 59.929688 C 223.585938 59.992188 223.621094 60.054688 223.664062 60.109375 C 223.785156 60.265625 223.957031 60.363281 224.152344 60.386719 C 224.347656 60.414062 224.539062 60.363281 224.699219 60.242188 C 224.957031 60.046875 225.058594 59.703125 224.945312 59.40625 C 224.917969 59.339844 224.882812 59.277344 224.839844 59.21875 C 224.597656 58.902344 224.132812 58.84375 223.808594 59.089844 C 223.550781 59.285156 223.449219 59.628906 223.5625 59.929688 Z M 225.105469 59.34375 C 225.242188 59.710938 225.117188 60.136719 224.800781 60.375 C 224.609375 60.523438 224.367188 60.585938 224.128906 60.554688 C 223.886719 60.527344 223.675781 60.402344 223.527344 60.214844 C 223.476562 60.144531 223.433594 60.070312 223.402344 59.988281 C 223.261719 59.621094 223.386719 59.195312 223.703125 58.953125 C 224.105469 58.652344 224.675781 58.726562 224.976562 59.117188 C 225.03125 59.1875 225.074219 59.261719 225.105469 59.34375"/></g></g></g></g><g clip-path="url(#aM)"><g clip-path="url(#aN)"><g clip-path="url(#aO)"><g clip-path="url(#aP)"><path fill="#FFF" d="M 239.554688 54.5 C 239.554688 54.5 234.941406 50.417969 233.84375 47.339844 C 232.878906 44.628906 236.246094 42.011719 238.335938 44.066406 C 239.824219 45.53125 240.082031 46.800781 240.144531 48.277344 C 240.207031 49.753906 239.554688 54.5 239.554688 54.5"/><path fill="#100F0D" d="M 239.363281 53.976562 C 239.527344 52.730469 239.9375 49.449219 239.890625 48.289062 C 239.859375 47.648438 239.796875 46.953125 239.53125 46.25 C 239.265625 45.554688 238.816406 44.898438 238.152344 44.246094 C 237.207031 43.316406 236.054688 43.503906 235.289062 43.984375 C 234.359375 44.570312 233.585938 45.84375 234.085938 47.25 C 234.972656 49.738281 238.261719 52.949219 239.363281 53.976562 Z M 240.011719 46.066406 C 240.304688 46.839844 240.375 47.609375 240.402344 48.261719 C 240.464844 49.746094 239.835938 54.335938 239.808594 54.53125 C 239.796875 54.625 239.730469 54.703125 239.644531 54.738281 C 239.554688 54.769531 239.453125 54.753906 239.382812 54.691406 C 239.195312 54.523438 234.707031 50.527344 233.601562 47.425781 C 233.335938 46.683594 233.355469 45.910156 233.652344 45.179688 C 233.921875 44.515625 234.40625 43.941406 235.015625 43.554688 C 235.5625 43.210938 236.164062 43.046875 236.757812 43.078125 C 237.410156 43.113281 238.019531 43.394531 238.519531 43.886719 C 239.234375 44.589844 239.722656 45.304688 240.011719 46.066406"/></g></g></g></g><g clip-path="url(#aQ)"><g clip-path="url(#aR)"><g clip-path="url(#aS)"><g clip-path="url(#aT)"><path fill="#FFF" d="M 233.84375 47.339844 C 234.917969 50.347656 239.351562 54.320312 239.546875 54.492188 C 238.898438 54.90625 232.003906 58.953125 224.238281 50.082031 C 216.394531 41.125 232.410156 46.164062 233.683594 46.574219 C 233.699219 46.824219 233.753906 47.082031 233.84375 47.339844"/></g></g></g></g><g clip-path="url(#aU)"><g clip-path="url(#aV)"><g clip-path="url(#aW)"><g clip-path="url(#aX)"><g clip-path="url(#aY)"><g clip-path="url(#aZ)"><path fill="#100F0D" d="M 222.511719 47.074219 C 222.792969 47.828125 223.441406 48.78125 224.433594 49.914062 C 227.636719 53.574219 231.046875 55.457031 234.570312 55.515625 C 236.8125 55.550781 238.441406 54.820312 239.117188 54.449219 C 238.121094 53.527344 234.558594 50.109375 233.601562 47.425781 C 233.523438 47.207031 233.472656 46.984375 233.441406 46.765625 C 232.742188 46.542969 230.570312 45.882812 228.328125 45.449219 C 224.453125 44.703125 223.074219 45.125 222.601562 45.613281 C 222.289062 45.9375 222.257812 46.414062 222.511719 47.074219 Z M 239.785156 54.402344 C 239.800781 54.4375 239.804688 54.472656 239.800781 54.511719 C 239.796875 54.589844 239.75 54.664062 239.683594 54.707031 C 239.328125 54.933594 237.398438 56.070312 234.554688 56.023438 C 232.925781 55.996094 231.292969 55.585938 229.699219 54.800781 C 227.746094 53.839844 225.84375 52.308594 224.042969 50.25 C 223.011719 49.070312 222.335938 48.066406 222.027344 47.257812 C 221.707031 46.40625 221.773438 45.738281 222.230469 45.265625 C 222.699219 44.78125 223.542969 44.542969 224.808594 44.539062 C 225.777344 44.535156 226.996094 44.675781 228.433594 44.949219 C 230.914062 45.429688 233.308594 46.183594 233.765625 46.332031 C 233.863281 46.363281 233.933594 46.449219 233.9375 46.554688 C 233.957031 46.785156 234.003906 47.019531 234.085938 47.253906 C 234.097656 47.285156 234.109375 47.316406 234.121094 47.351562 C 235.234375 50.289062 239.535156 54.140625 239.71875 54.304688 C 239.75 54.332031 239.773438 54.363281 239.785156 54.402344"/></g></g></g></g></g></g><g clip-path="url(#ba)"><g clip-path="url(#bb)"><g clip-path="url(#bc)"><g clip-path="url(#bd)"><g clip-path="url(#be)"><g clip-path="url(#bf)"><path fill="#100F0D" d="M 251.710938 48.050781 C 251.703125 48.019531 251.695312 47.988281 251.695312 47.957031 C 251.71875 46.6875 252.175781 45.960938 252.582031 45.320312 C 252.601562 45.289062 252.621094 45.257812 252.640625 45.226562 C 252.609375 45.242188 252.574219 45.261719 252.542969 45.277344 C 251.867188 45.628906 251.101562 46.03125 249.820312 45.957031 C 249.773438 45.957031 249.726562 45.941406 249.691406 45.914062 C 246.898438 44 243.097656 44.34375 240.65625 46.730469 C 240.535156 46.847656 240.417969 46.996094 240.300781 47.179688 C 240.351562 47.488281 240.382812 47.828125 240.402344 48.261719 C 240.464844 49.746094 239.835938 54.335938 239.808594 54.53125 C 239.796875 54.625 239.734375 54.703125 239.644531 54.738281 C 239.636719 54.738281 239.628906 54.742188 239.621094 54.742188 C 239.355469 54.90625 238.644531 55.304688 237.589844 55.613281 C 236.152344 56.035156 234.664062 56.132812 233.160156 55.90625 C 233.070312 55.964844 232.996094 56.027344 232.933594 56.085938 C 231.4375 57.546875 230.941406 59.746094 231.675781 61.679688 C 231.929688 62.347656 232.308594 62.941406 232.8125 63.457031 C 232.8125 63.457031 232.816406 63.460938 232.816406 63.464844 C 234.738281 65.585938 238.074219 65.769531 240.261719 63.875 C 240.320312 63.824219 240.382812 63.757812 240.457031 63.667969 C 240.183594 60.253906 241.695312 57.925781 242.097656 57.375 C 242.101562 57.367188 242.101562 57.363281 242.105469 57.359375 C 242.144531 57.273438 242.230469 57.214844 242.324219 57.210938 C 242.523438 57.195312 247.199219 56.910156 248.6875 57.078125 C 249.125 57.132812 249.460938 57.1875 249.773438 57.257812 C 249.96875 57.152344 250.125 57.050781 250.25 56.941406 C 252.480469 55.011719 253.285156 51.890625 252.257812 49.171875 C 252.113281 48.796875 251.9375 48.433594 251.730469 48.089844 C 251.722656 48.078125 251.71875 48.0625 251.710938 48.050781 Z M 253.46875 44.59375 C 253.492188 44.652344 253.492188 44.71875 253.464844 44.78125 C 253.347656 45.0625 253.1875 45.316406 253.015625 45.585938 C 252.636719 46.183594 252.246094 46.804688 252.210938 47.890625 C 252.417969 48.242188 252.59375 48.609375 252.738281 48.988281 C 253.273438 50.40625 253.363281 51.9375 252.992188 53.421875 C 252.617188 54.9375 251.785156 56.285156 250.589844 57.320312 C 250.414062 57.472656 250.191406 57.617188 249.917969 57.753906 C 249.863281 57.78125 249.796875 57.789062 249.738281 57.773438 C 249.425781 57.695312 249.082031 57.636719 248.621094 57.585938 C 247.339844 57.4375 243.414062 57.65625 242.53125 57.707031 C 242.519531 57.714844 242.507812 57.722656 242.496094 57.726562 C 242.484375 57.734375 242.472656 57.742188 242.460938 57.746094 C 242.011719 58.386719 240.695312 60.5625 240.976562 63.722656 C 240.980469 63.785156 240.960938 63.847656 240.921875 63.898438 C 240.804688 64.050781 240.699219 64.167969 240.597656 64.257812 C 239.429688 65.265625 237.941406 65.777344 236.402344 65.691406 C 234.867188 65.605469 233.457031 64.933594 232.4375 63.808594 C 231.886719 63.246094 231.472656 62.589844 231.195312 61.863281 C 230.390625 59.742188 230.933594 57.332031 232.578125 55.722656 C 232.683594 55.621094 232.808594 55.523438 232.964844 55.425781 C 233.019531 55.390625 233.085938 55.378906 233.148438 55.386719 C 234.609375 55.621094 236.054688 55.535156 237.445312 55.125 C 238.355469 54.859375 238.988281 54.527344 239.277344 54.359375 C 239.289062 54.335938 239.304688 54.3125 239.324219 54.292969 C 239.441406 53.417969 239.941406 49.566406 239.890625 48.289062 C 239.867188 47.835938 239.832031 47.492188 239.78125 47.175781 C 239.769531 47.113281 239.78125 47.054688 239.8125 47 C 239.96875 46.742188 240.128906 46.535156 240.296875 46.371094 C 242.898438 43.828125 246.9375 43.445312 249.925781 45.453125 C 251.019531 45.5 251.675781 45.160156 252.304688 44.828125 C 252.589844 44.679688 252.855469 44.542969 253.148438 44.445312 C 253.246094 44.410156 253.351562 44.4375 253.417969 44.511719 C 253.441406 44.535156 253.460938 44.5625 253.46875 44.59375"/></g></g></g></g></g></g><g fill="#2667FF"><g><g><path d="M 24.3125 -33.015625 L 32.359375 -33.015625 L 32.359375 0 L 24.3125 0 L 24.3125 -13.6875 L 11.5625 -13.6875 L 11.5625 0 L 3.53125 0 L 3.53125 -33.015625 L 11.5625 -33.015625 L 11.5625 -19.796875 L 24.3125 -19.796875 Z M 24.3125 -33.015625" transform="translate(132.315 112.032)"/></g></g></g><g fill="#2667FF"><g><g><path d="M 21.359375 -26.25 L 29.390625 -26.25 L 29.390625 0 L 21.359375 0 L 21.359375 -3.859375 C 19.691406 -1.097656 17.039062 0.28125 13.40625 0.28125 C 10.394531 0.28125 7.957031 -0.71875 6.09375 -2.71875 C 4.226562 -4.726562 3.296875 -7.457031 3.296875 -10.90625 L 3.296875 -26.25 L 11.28125 -26.25 L 11.28125 -12 C 11.28125 -10.300781 11.726562 -8.988281 12.625 -8.0625 C 13.519531 -7.132812 14.75 -6.671875 16.3125 -6.671875 C 17.882812 -6.671875 19.117188 -7.132812 20.015625 -8.0625 C 20.910156 -8.988281 21.359375 -10.300781 21.359375 -12 Z M 21.359375 -26.25" transform="translate(167.011 112.032)"/></g></g></g><g fill="#2667FF"><g><g><path d="M 14.671875 -6.8125 L 17.546875 -6.8125 L 17.546875 0 L 13.453125 0 C 10.503906 0 8.222656 -0.648438 6.609375 -1.953125 C 4.992188 -3.253906 4.1875 -5.488281 4.1875 -8.65625 L 4.1875 -19.5625 L 1.734375 -19.5625 L 1.734375 -26.25 L 4.1875 -26.25 L 4.1875 -32.640625 L 12.234375 -32.640625 L 12.234375 -26.25 L 17.5 -26.25 L 17.5 -19.5625 L 12.234375 -19.5625 L 12.234375 -8.65625 C 12.234375 -7.425781 13.046875 -6.8125 14.671875 -6.8125 Z M 14.671875 -6.8125" transform="translate(239.058 112.032)"/></g></g></g><g fill="#2667FF"><g><g><path d="M 3.53125 0 L 3.53125 -34.796875 L 11.5625 -34.796875 L 11.5625 0 Z M 3.53125 0" transform="translate(257.393 112.032)"/></g></g></g><g fill="#2667FF"><g><g><path d="M 14.671875 0.328125 C 10.847656 0.328125 7.710938 -0.898438 5.265625 -3.359375 C 2.816406 -5.816406 1.59375 -9.082031 1.59375 -13.15625 C 1.59375 -17.238281 2.804688 -20.488281 5.234375 -22.90625 C 7.671875 -25.320312 10.816406 -26.53125 14.671875 -26.53125 C 18.523438 -26.53125 21.722656 -25.335938 24.265625 -22.953125 C 26.804688 -20.566406 28.078125 -17.257812 28.078125 -13.03125 C 28.078125 -12.113281 28.015625 -11.265625 27.890625 -10.484375 L 9.828125 -10.484375 C 9.984375 -9.328125 10.5 -8.378906 11.375 -7.640625 C 12.257812 -6.898438 13.207031 -6.53125 14.21875 -6.53125 C 15.238281 -6.53125 16 -6.632812 16.5 -6.84375 C 17.007812 -7.050781 17.378906 -7.253906 17.609375 -7.453125 C 17.847656 -7.660156 18.15625 -8 18.53125 -8.46875 L 27.234375 -8.46875 C 26.484375 -5.832031 24.976562 -3.707031 22.71875 -2.09375 C 20.457031 -0.476562 17.773438 0.328125 14.671875 0.328125 Z M 19.703125 -15.515625 C 19.578125 -16.742188 19.046875 -17.738281 18.109375 -18.5 C 17.171875 -19.269531 16.054688 -19.65625 14.765625 -19.65625 C 13.484375 -19.65625 12.398438 -19.269531 11.515625 -18.5 C 10.640625 -17.738281 10.09375 -16.742188 9.875 -15.515625 Z M 19.703125 -15.515625" transform="translate(271.31 112.032)"/></g></g></g></svg>