<svg xmlns="http://www.w3.org/2000/svg" data-name="Layer 1" viewBox="0 0 64 64"><path fill="none" stroke="#2667FF" stroke-linecap="round" stroke-linejoin="round" stroke-width="2" d="M56.15,44V40c0-2-1.67-3.35-3.5-4l-7.5-3-4,4,4,4,3-6"/><path fill="none" stroke="#2667FF" stroke-linecap="round" stroke-linejoin="round" stroke-width="2" d="M34.16,35l3,6,4-4-4-4-7.5,3c-1.83.65-3.61,2-3.5,4v9h6" data-name="path4590-8-4-9-6"/><path fill="none" stroke="#2667FF" stroke-width="2" d="M37.16 29v4M45.15 29v4"/><path fill="none" stroke="#2667FF" stroke-linecap="round" stroke-linejoin="round" stroke-width="2" d="M43.15,15c-3,2-6,2-9,2v2h-1a2,2,0,0,0-2,2,4.37,4.37,0,0,0,2,3c2,4,4.74,6.92,8,7"/><path fill="none" stroke="#2667FF" stroke-linecap="round" stroke-linejoin="round" stroke-width="2" d="M43.15,15a5.51,5.51,0,0,0,5,2v2h1a2,2,0,0,1,2,2,4.37,4.37,0,0,1-2,3c-2,4-4.74,6.92-8,7"/><path fill="none" stroke="#2667FF" stroke-linejoin="round" stroke-width="2" d="M51.15,21V14c0-2.77-1.23-5-4-5-2-3-5.93-3.86-10.35-1.93-3.36,1.46-5.64,4.42-5.64,9.46V21"/><path fill="none" stroke="#2667FF" stroke-linecap="round" stroke-linejoin="round" stroke-width="2" d="M26.16 49h0a8.63 8.63 0 0 0 1.47 7.3l.52.7h2M40.15 58H57.42a2 2 0 0 0 2-1.72L61 45.14A1 1 0 0 0 60 44H43a1 1 0 0 0-1 .86zM37.15 54h-5a2 2 0 0 0-2 2h0a2 2 0 0 0 2 2h8M32.15 44v5c-.4 2 .25 4.37 2 5"/><circle cx="51.15" cy="51" r="2" fill="none" stroke="#2667FF" stroke-linecap="round" stroke-linejoin="round" stroke-width="2"/><line x1="2" x2="34" y1="58" y2="58" fill="none" stroke="#2667FF" stroke-linecap="round" stroke-linejoin="round" stroke-width="2"/><path fill="none" stroke="#2667FF" stroke-linecap="round" stroke-linejoin="round" stroke-width="2" d="M4,58H4a4,4,0,0,0,4,4H61"/><circle cx="12" cy="12" r="9" fill="none" stroke="#2667FF" stroke-linecap="round" stroke-linejoin="round" stroke-width="2"/><polyline fill="none" stroke="#2667FF" stroke-linecap="round" stroke-linejoin="round" stroke-width="2" points="12 7 12 12 15 14"/><path fill="none" stroke="#2667FF" stroke-linecap="round" stroke-linejoin="round" stroke-width="2" d="M9,51H20a0,0,0,0,1,0,0v4a0,0,0,0,1,0,0H9a1,1,0,0,1-1-1V52A1,1,0,0,1,9,51Z"/><line x1="19" x2="21" y1="51" y2="51" fill="none" stroke="#2667FF" stroke-linecap="round" stroke-linejoin="round" stroke-width="2"/><line x1="19" x2="21" y1="55" y2="55" fill="none" stroke="#2667FF" stroke-linecap="round" stroke-linejoin="round" stroke-width="2"/><path fill="none" stroke="#2667FF" stroke-linecap="round" stroke-linejoin="round" stroke-width="2" d="M8,47H19a0,0,0,0,1,0,0v4a0,0,0,0,1,0,0H8a1,1,0,0,1-1-1V48A1,1,0,0,1,8,47Z" transform="rotate(180 13 49)"/><line x1="8" x2="6" y1="47" y2="47" fill="none" stroke="#2667FF" stroke-linecap="round" stroke-linejoin="round" stroke-width="2"/><line x1="8" x2="6" y1="51" y2="51" fill="none" stroke="#2667FF" stroke-linecap="round" stroke-linejoin="round" stroke-width="2"/><path fill="none" stroke="#2667FF" stroke-linecap="round" stroke-linejoin="round" stroke-width="2" d="M16 40l-.51 2.06A2.57 2.57 0 0 1 13 44h0a2.57 2.57 0 0 1-2.49-1.94L10 40zM13 37v-.5A1.5 1.5 0 0 1 14.5 35h4A1.5 1.5 0 0 0 20 33.5h0A1.5 1.5 0 0 0 18.5 32H16"/></svg>