<svg xmlns="http://www.w3.org/2000/svg" width="32" height="32" enable-background="new 0 0 32 32" viewBox="0 0 32 32"><path fill="#2667FF" d="M 7 2 A 3 3 0 0 0 4 5 A 3 3 0 0 0 7 8 A 3 3 0 0 0 10 5 A 3 3 0 0 0 7 2 z M 24.03125 6 C 23.836815 5.9877777 23.645752 6.0927735 23.552734 6.2773438 L 20.552734 12.275391 C 20.429198 12.522462 20.528319 12.823242 20.775391 12.947266 C 20.847168 12.983398 20.924804 13 21 13 C 21.183593 13 21.359375 12.899414 21.447266 12.724609 L 22.5 10.617188 L 22.5 14 L 22 14 C 21.723633 14 21.5 14.223633 21.5 14.5 C 21.5 14.776367 21.723633 15 22 15 L 24 15 C 24.276367 15 24.5 14.776367 24.5 14.5 C 24.5 14.223633 24.276367 14 24 14 L 23.5 14 L 23.5 8.6464844 C 23.5 8.6390944 23.496394 8.6342771 23.496094 8.6269531 L 24.447266 6.7226562 C 24.570801 6.475586 24.471679 6.1767578 24.224609 6.0527344 C 24.16272 6.0217285 24.096062 6.0040741 24.03125 6 z M 6.5 8.671875 C 4.8432617 8.671875 3.5 10.014648 3.5 11.671875 L 3.5 19 C 3.5 20.657227 4.8432617 22 6.5 22 L 11.5 22 L 11.5 28.5 C 11.5 29.328125 12.171387 30 13 30 C 13.828613 30 14.5 29.328125 14.5 28.5 L 14.5 20.5 C 14.5 19.671875 13.828613 19 13 19 L 9.5 19 L 9.5 13.759766 L 11.234375 14.789062 C 11.46582 14.926757 11.730469 15 12 15 L 16 15 C 16.228821 15 16.442688 14.945127 16.636719 14.853516 C 16.727173 14.944215 16.85376 15 16.992188 15 L 19 15 C 19.276367 15 19.5 14.776367 19.5 14.5 C 19.5 14.223633 19.276367 14 19 14 L 17.408203 14 C 17.46405 13.842895 17.5 13.67627 17.5 13.5 C 17.5 12.671875 16.828613 12 16 12 L 12.412109 12 L 8.9433594 9.9394531 C 8.3997193 9.1740112 7.5102539 8.671875 6.5 8.671875 z M 1.5019531 13.992188 C 0.94970703 13.992188 0.50195312 14.439453 0.50195312 14.992188 L 0.5 24 C 0.5 24.413757 0.7515869 24.7677 1.109375 24.919922 C 1.109375 24.919922 1.1113281 24.921875 1.1113281 24.921875 C 1.231017 24.972433 1.3618774 25 1.5 25 L 4.5 25 L 4.5 26.164062 L 4.5 27.685547 L 2.6796875 29.097656 C 2.4614258 29.266601 2.4223631 29.580078 2.5917969 29.798828 C 2.6899419 29.925781 2.8369141 29.992188 2.9863281 29.992188 C 3.0932617 29.992188 3.2021484 29.957031 3.2929688 29.886719 L 4.5 28.951172 L 4.5 29 L 4.5 29.492188 C 4.5 29.768556 4.7236328 29.992187 5 29.992188 C 5.2763672 29.992188 5.5 29.768556 5.5 29.492188 L 5.5 28.972656 L 6.6796875 29.886719 C 6.7705075 29.957029 6.8793945 29.992187 6.9863281 29.992188 C 7.1357422 29.992188 7.2827149 29.925777 7.3808594 29.798828 C 7.550293 29.580078 7.5112302 29.266601 7.2929688 29.097656 L 5.5 27.707031 L 5.5 25 L 8.4863281 25 C 9.0385742 25 9.4863281 24.552734 9.4863281 24 C 9.4863281 23.447266 9.0385742 23 8.4863281 23 L 2.5 23 L 2.5019531 14.992188 C 2.5019531 14.44043 2.0546875 13.992188 1.5019531 13.992188 z M 13.5 16 C 12.947754 16 12.5 16.447266 12.5 17 C 12.5 17.552734 12.947754 18 13.5 18 L 15.5 18 L 15.5 29 C 15.5 29.552734 15.947754 30 16.5 30 C 17.052246 30 17.5 29.552734 17.5 29 L 17.5 18 L 26.5 18 L 26.5 29 C 26.5 29.552734 26.947754 30 27.5 30 C 28.052246 30 28.5 29.552734 28.5 29 L 28.5 18 L 30.5 18 C 31.052246 18 31.5 17.552734 31.5 17 C 31.5 16.447266 31.052246 16 30.5 16 L 13.5 16 z "/></svg>