<svg xmlns="http://www.w3.org/2000/svg" viewBox="0 0 30 30"><g fill="#2667FF"><circle cx="13" cy="7" r="7"/><path d="M18 18h.846a.5.5 0 0 0 .156-.975C16.942 16.345 14.922 16 13 16c-4.067 0-7.754 1.528-10.13 2.81C1.1 19.764 0 21.642 0 23.71V25c0 1.103.897 2 2 2h12.5a.5.5 0 0 0 .5-.5V26c0-.433.102-.865.302-1.284a.503.503 0 0 0 0-.432A2.96 2.96 0 0 1 15 23v-2c0-1.654 1.346-3 3-3z"/><path d="M29.965 24.316c-.003-.006-.245-.628-.379-1.401a.5.5 0 0 0-.492-.415H19.5a.5.5 0 0 1 0-1h9.594a.5.5 0 0 0 .492-.415c.134-.773.376-1.395.379-1.401A.499.499 0 0 0 29.5 19H18c-1.103 0-2 .897-2 2v2c0 .6.271 1.133.691 1.5-.42.367-.691.9-.691 1.5v2c0 1.103.897 2 2 2h11.5a.5.5 0 0 0 .465-.684c-.003-.006-.245-.628-.379-1.401a.5.5 0 0 0-.492-.415H19.5a.5.5 0 0 1 0-1h9.594a.5.5 0 0 0 .492-.415c.134-.773.365-1.407.365-1.407a.488.488 0 0 0 .014-.362z"/></g></svg>